<?xml version="1.0" encoding="UTF-8"?>
<svg xmlns="http://www.w3.org/2000/svg" xmlns:xlink="http://www.w3.org/1999/xlink" width="1480pt" height="320pt" viewBox="260 1340 1480 320">
<path fill-rule="nonzero" fill="rgb(0.392157%, 15.686275%, 31.764706%)" fill-opacity="1" d="M 0 2000 L 2000 2000 L 2000 1000 L 0 1000 Z M 0 2000 "/>
<path fill-rule="nonzero" fill="rgb(100%, 100%, 100%)" fill-opacity="1" d="M 440.039062 1502.769531 C 434.523438 1498.871094 431.621094 1492.648438 431.726562 1486.359375 C 431.730469 1486.34375 431.730469 1486.328125 431.730469 1486.308594 C 431.742188 1486.113281 431.746094 1485.914062 431.75 1485.714844 C 431.75 1485.707031 431.746094 1485.695312 431.75 1485.6875 C 431.847656 1479.15625 428.824219 1472.695312 423.085938 1468.640625 C 417.335938 1464.578125 410.214844 1463.898438 404.085938 1466.1875 C 404.058594 1466.199219 404.035156 1466.207031 404.015625 1466.21875 C 403.867188 1466.269531 403.71875 1466.328125 403.574219 1466.386719 C 403.566406 1466.390625 403.558594 1466.394531 403.550781 1466.398438 C 403.460938 1466.433594 403.367188 1466.457031 403.277344 1466.492188 C 403.175781 1466.527344 403.070312 1466.5625 402.96875 1466.597656 C 402.695312 1466.691406 402.425781 1466.78125 402.148438 1466.859375 C 402.054688 1466.890625 401.957031 1466.914062 401.859375 1466.941406 C 401.574219 1467.019531 401.292969 1467.09375 401.007812 1467.160156 C 400.914062 1467.179688 400.820312 1467.199219 400.730469 1467.21875 C 400.4375 1467.28125 400.144531 1467.339844 399.851562 1467.390625 C 399.761719 1467.402344 399.667969 1467.417969 399.578125 1467.429688 C 399.28125 1467.476562 398.984375 1467.515625 398.6875 1467.546875 C 398.59375 1467.558594 398.503906 1467.566406 398.410156 1467.574219 C 398.113281 1467.601562 397.816406 1467.625 397.519531 1467.640625 C 397.421875 1467.644531 397.320312 1467.644531 397.222656 1467.648438 C 396.933594 1467.65625 396.640625 1467.664062 396.347656 1467.660156 C 396.316406 1467.660156 396.28125 1467.660156 396.246094 1467.660156 C 396.230469 1467.660156 396.214844 1467.65625 396.195312 1467.65625 C 395.996094 1467.648438 395.800781 1467.640625 395.601562 1467.640625 C 395.59375 1467.640625 395.582031 1467.640625 395.574219 1467.640625 C 389.042969 1467.539062 382.582031 1470.5625 378.527344 1476.300781 C 374.464844 1482.050781 373.78125 1489.171875 376.074219 1495.300781 C 376.085938 1495.328125 376.089844 1495.351562 376.101562 1495.375 C 376.15625 1495.523438 376.214844 1495.667969 376.273438 1495.8125 C 376.273438 1495.824219 376.277344 1495.832031 376.28125 1495.835938 C 378.507812 1501.734375 377.859375 1508.59375 373.945312 1514.132812 C 367.683594 1522.996094 355.414062 1525.109375 346.542969 1518.839844 C 337.675781 1512.578125 335.566406 1500.308594 341.832031 1491.441406 C 345.742188 1485.90625 351.992188 1483 358.289062 1483.125 C 358.46875 1483.136719 358.652344 1483.140625 358.828125 1483.144531 C 365.386719 1483.269531 371.886719 1480.242188 375.957031 1474.484375 C 380.015625 1468.738281 380.699219 1461.621094 378.414062 1455.492188 C 378.410156 1455.484375 378.410156 1455.480469 378.40625 1455.472656 C 378.34375 1455.292969 378.273438 1455.121094 378.203125 1454.945312 C 378.199219 1454.929688 378.191406 1454.914062 378.183594 1454.90625 C 378.09375 1454.65625 378.011719 1454.40625 377.929688 1454.15625 C 377.921875 1454.125 377.910156 1454.09375 377.898438 1454.066406 C 377.816406 1453.8125 377.742188 1453.554688 377.671875 1453.296875 C 377.648438 1453.226562 377.628906 1453.152344 377.609375 1453.078125 C 377.542969 1452.828125 377.480469 1452.574219 377.421875 1452.316406 C 377.410156 1452.257812 377.398438 1452.199219 377.386719 1452.136719 C 377.199219 1451.269531 377.070312 1450.390625 377 1449.503906 C 377 1449.488281 376.996094 1449.472656 376.996094 1449.457031 C 376.976562 1449.183594 376.964844 1448.910156 376.953125 1448.636719 C 376.953125 1448.570312 376.949219 1448.5 376.949219 1448.433594 C 376.941406 1448.164062 376.941406 1447.898438 376.945312 1447.625 C 376.945312 1447.574219 376.949219 1447.523438 376.949219 1447.46875 C 376.980469 1446.269531 377.121094 1445.070312 377.375 1443.882812 C 377.386719 1443.835938 377.394531 1443.792969 377.40625 1443.746094 C 377.46875 1443.464844 377.535156 1443.183594 377.609375 1442.90625 C 377.621094 1442.871094 377.632812 1442.835938 377.640625 1442.800781 C 377.96875 1441.605469 378.410156 1440.4375 378.972656 1439.300781 C 378.992188 1439.265625 379.007812 1439.230469 379.023438 1439.195312 C 379.160156 1438.925781 379.300781 1438.660156 379.449219 1438.398438 C 379.46875 1438.363281 379.488281 1438.328125 379.507812 1438.296875 C 379.824219 1437.738281 380.160156 1437.191406 380.539062 1436.65625 C 386.804688 1427.785156 399.074219 1425.675781 407.941406 1431.941406 C 408.257812 1432.164062 408.566406 1432.402344 408.867188 1432.640625 C 408.964844 1432.71875 409.058594 1432.796875 409.152344 1432.875 C 409.351562 1433.039062 409.546875 1433.207031 409.734375 1433.378906 C 409.84375 1433.476562 409.949219 1433.570312 410.054688 1433.671875 C 410.230469 1433.835938 410.398438 1434 410.566406 1434.171875 C 410.667969 1434.273438 410.769531 1434.371094 410.867188 1434.476562 C 411.0625 1434.679688 411.253906 1434.894531 411.4375 1435.105469 C 411.550781 1435.234375 411.660156 1435.367188 411.769531 1435.496094 C 411.9375 1435.699219 412.101562 1435.902344 412.261719 1436.109375 C 412.363281 1436.246094 412.464844 1436.390625 412.5625 1436.527344 C 412.671875 1436.679688 412.78125 1436.832031 412.886719 1436.988281 C 412.992188 1437.144531 413.09375 1437.296875 413.191406 1437.453125 C 413.28125 1437.597656 413.371094 1437.742188 413.457031 1437.886719 C 413.558594 1438.054688 413.660156 1438.222656 413.753906 1438.390625 C 413.824219 1438.519531 413.890625 1438.648438 413.960938 1438.777344 C 414.15625 1439.148438 414.339844 1439.527344 414.515625 1439.90625 C 414.554688 1440 414.597656 1440.089844 414.636719 1440.179688 C 414.730469 1440.390625 414.8125 1440.605469 414.898438 1440.820312 C 414.941406 1440.925781 414.984375 1441.035156 415.023438 1441.144531 C 415.105469 1441.363281 415.183594 1441.582031 415.253906 1441.804688 C 415.289062 1441.902344 415.316406 1442 415.347656 1442.101562 C 415.425781 1442.335938 415.496094 1442.574219 415.5625 1442.8125 C 415.570312 1442.84375 415.574219 1442.871094 415.585938 1442.898438 C 415.8125 1443.746094 415.980469 1444.605469 416.09375 1445.472656 C 416.101562 1445.539062 416.109375 1445.605469 416.117188 1445.671875 C 416.148438 1445.933594 416.175781 1446.195312 416.195312 1446.460938 C 416.203125 1446.527344 416.207031 1446.59375 416.210938 1446.664062 C 416.25 1447.242188 416.273438 1447.824219 416.261719 1448.40625 C 416.253906 1448.582031 416.246094 1448.765625 416.242188 1448.941406 C 416.121094 1455.5 419.144531 1462 424.902344 1466.070312 C 430.648438 1470.128906 437.765625 1470.8125 443.894531 1468.53125 C 443.902344 1468.527344 443.90625 1468.527344 443.914062 1468.523438 C 444.09375 1468.457031 444.269531 1468.386719 444.445312 1468.316406 C 444.460938 1468.3125 444.472656 1468.304688 444.484375 1468.296875 C 450.371094 1466.101562 457.214844 1466.753906 462.730469 1470.652344 C 471.601562 1476.921875 473.710938 1489.191406 467.445312 1498.054688 C 461.179688 1506.925781 448.910156 1509.035156 440.039062 1502.769531 "/>
<path fill-rule="nonzero" fill="rgb(100%, 100%, 100%)" fill-opacity="1" d="M 433.699219 1511.175781 C 433.082031 1517.90625 429.144531 1523.53125 423.648438 1526.582031 C 423.632812 1526.585938 423.617188 1526.59375 423.601562 1526.601562 C 423.425781 1526.691406 423.25 1526.785156 423.078125 1526.882812 C 423.070312 1526.886719 423.0625 1526.894531 423.054688 1526.898438 C 417.347656 1530.078125 413.265625 1535.925781 412.621094 1542.921875 C 411.980469 1549.933594 414.949219 1556.441406 420 1560.605469 C 420.019531 1560.621094 420.035156 1560.636719 420.058594 1560.652344 C 420.179688 1560.753906 420.300781 1560.851562 420.425781 1560.945312 C 420.433594 1560.957031 420.441406 1560.960938 420.445312 1560.964844 C 420.523438 1561.023438 420.59375 1561.09375 420.664062 1561.15625 C 420.746094 1561.222656 420.828125 1561.296875 420.910156 1561.367188 C 421.125 1561.554688 421.339844 1561.75 421.546875 1561.945312 C 421.621094 1562.015625 421.691406 1562.085938 421.761719 1562.15625 C 421.972656 1562.363281 422.179688 1562.570312 422.378906 1562.785156 C 422.441406 1562.855469 422.507812 1562.925781 422.570312 1562.996094 C 422.769531 1563.21875 422.964844 1563.441406 423.15625 1563.671875 C 423.214844 1563.742188 423.269531 1563.816406 423.328125 1563.886719 C 423.515625 1564.121094 423.699219 1564.359375 423.875 1564.601562 C 423.929688 1564.675781 423.984375 1564.75 424.035156 1564.828125 C 424.207031 1565.070312 424.375 1565.316406 424.539062 1565.566406 C 424.589844 1565.648438 424.640625 1565.734375 424.691406 1565.816406 C 424.847656 1566.0625 424.996094 1566.3125 425.140625 1566.566406 C 425.15625 1566.597656 425.175781 1566.628906 425.191406 1566.65625 C 425.199219 1566.671875 425.207031 1566.6875 425.214844 1566.707031 C 425.304688 1566.878906 425.398438 1567.054688 425.496094 1567.226562 C 425.5 1567.234375 425.507812 1567.242188 425.511719 1567.25 C 428.691406 1572.957031 434.539062 1577.039062 441.535156 1577.683594 C 448.546875 1578.328125 455.054688 1575.355469 459.21875 1570.304688 C 459.234375 1570.285156 459.25 1570.265625 459.265625 1570.246094 C 459.367188 1570.125 459.464844 1570.003906 459.558594 1569.878906 C 459.566406 1569.871094 459.570312 1569.867188 459.578125 1569.855469 C 463.570312 1564.980469 469.835938 1562.113281 476.585938 1562.734375 C 487.398438 1563.726562 495.359375 1573.296875 494.367188 1584.109375 C 493.375 1594.921875 483.804688 1602.882812 472.992188 1601.890625 C 466.246094 1601.273438 460.605469 1597.3125 457.5625 1591.796875 C 457.484375 1591.636719 457.394531 1591.476562 457.3125 1591.320312 C 454.140625 1585.578125 448.269531 1581.460938 441.246094 1580.816406 C 434.242188 1580.175781 427.738281 1583.140625 423.570312 1588.183594 C 423.566406 1588.191406 423.5625 1588.195312 423.558594 1588.203125 C 423.433594 1588.34375 423.320312 1588.496094 423.203125 1588.640625 C 423.191406 1588.652344 423.179688 1588.667969 423.175781 1588.679688 C 423.007812 1588.882812 422.832031 1589.074219 422.65625 1589.269531 C 422.636719 1589.296875 422.613281 1589.320312 422.59375 1589.34375 C 422.414062 1589.542969 422.230469 1589.734375 422.042969 1589.925781 C 421.988281 1589.980469 421.9375 1590.035156 421.882812 1590.085938 C 421.699219 1590.273438 421.507812 1590.453125 421.316406 1590.632812 C 421.273438 1590.671875 421.226562 1590.714844 421.179688 1590.753906 C 420.519531 1591.351562 419.824219 1591.902344 419.089844 1592.40625 C 419.078125 1592.414062 419.066406 1592.421875 419.050781 1592.429688 C 418.824219 1592.585938 418.597656 1592.730469 418.363281 1592.878906 C 418.304688 1592.914062 418.25 1592.949219 418.191406 1592.984375 C 417.960938 1593.125 417.730469 1593.257812 417.492188 1593.390625 C 417.445312 1593.414062 417.402344 1593.4375 417.355469 1593.464844 C 416.300781 1594.035156 415.191406 1594.511719 414.039062 1594.886719 C 413.992188 1594.902344 413.945312 1594.917969 413.902344 1594.929688 C 413.625 1595.019531 413.351562 1595.097656 413.074219 1595.171875 C 413.035156 1595.183594 413 1595.191406 412.964844 1595.203125 C 411.769531 1595.515625 410.53125 1595.714844 409.265625 1595.796875 C 409.230469 1595.800781 409.191406 1595.800781 409.152344 1595.804688 C 408.851562 1595.820312 408.550781 1595.832031 408.246094 1595.835938 C 408.207031 1595.835938 408.167969 1595.835938 408.132812 1595.835938 C 407.492188 1595.839844 406.847656 1595.824219 406.195312 1595.761719 C 395.382812 1594.769531 387.417969 1585.199219 388.410156 1574.390625 C 388.445312 1574 388.496094 1573.621094 388.554688 1573.238281 C 388.574219 1573.117188 388.59375 1572.996094 388.617188 1572.871094 C 388.660156 1572.621094 388.707031 1572.367188 388.757812 1572.117188 C 388.789062 1571.976562 388.820312 1571.835938 388.851562 1571.691406 C 388.90625 1571.460938 388.964844 1571.230469 389.027344 1571 C 389.066406 1570.863281 389.101562 1570.722656 389.140625 1570.589844 C 389.222656 1570.3125 389.3125 1570.046875 389.402344 1569.777344 C 389.457031 1569.617188 389.515625 1569.453125 389.578125 1569.292969 C 389.667969 1569.050781 389.761719 1568.804688 389.863281 1568.5625 C 389.929688 1568.40625 390 1568.25 390.070312 1568.09375 C 390.148438 1567.921875 390.226562 1567.75 390.308594 1567.582031 C 390.390625 1567.414062 390.476562 1567.25 390.5625 1567.085938 C 390.640625 1566.933594 390.722656 1566.785156 390.804688 1566.636719 C 390.898438 1566.46875 390.992188 1566.296875 391.089844 1566.128906 C 391.164062 1566.003906 391.246094 1565.882812 391.320312 1565.761719 C 391.546875 1565.402344 391.777344 1565.054688 392.023438 1564.714844 C 392.082031 1564.632812 392.136719 1564.550781 392.199219 1564.46875 C 392.335938 1564.285156 392.476562 1564.105469 392.621094 1563.925781 C 392.695312 1563.835938 392.765625 1563.742188 392.839844 1563.652344 C 392.988281 1563.472656 393.140625 1563.296875 393.296875 1563.125 C 393.363281 1563.046875 393.433594 1562.96875 393.503906 1562.894531 C 393.671875 1562.710938 393.84375 1562.53125 394.015625 1562.351562 C 394.039062 1562.332031 394.058594 1562.3125 394.078125 1562.292969 C 394.699219 1561.671875 395.359375 1561.097656 396.054688 1560.5625 C 396.109375 1560.523438 396.160156 1560.480469 396.214844 1560.441406 C 396.425781 1560.285156 396.640625 1560.128906 396.859375 1559.980469 C 396.914062 1559.941406 396.96875 1559.90625 397.027344 1559.867188 C 397.507812 1559.542969 398 1559.230469 398.507812 1558.953125 C 398.667969 1558.871094 398.828125 1558.785156 398.984375 1558.699219 C 404.726562 1555.527344 408.84375 1549.65625 409.488281 1542.632812 C 410.128906 1535.628906 407.164062 1529.125 402.121094 1524.957031 C 402.113281 1524.953125 402.109375 1524.949219 402.105469 1524.945312 C 401.957031 1524.820312 401.8125 1524.707031 401.660156 1524.589844 C 401.652344 1524.578125 401.636719 1524.566406 401.625 1524.5625 C 396.777344 1520.5625 393.925781 1514.3125 394.542969 1507.582031 C 395.535156 1496.769531 405.105469 1488.808594 415.914062 1489.800781 C 426.730469 1490.792969 434.691406 1500.359375 433.699219 1511.175781 "/>
<path fill-rule="nonzero" fill="rgb(100%, 100%, 100%)" fill-opacity="1" d="M 444.152344 1512.46875 C 450.289062 1509.636719 457.128906 1510.238281 462.519531 1513.472656 C 462.53125 1513.480469 462.542969 1513.492188 462.5625 1513.5 C 462.726562 1513.605469 462.894531 1513.710938 463.066406 1513.8125 C 463.074219 1513.816406 463.082031 1513.820312 463.089844 1513.824219 C 468.695312 1517.175781 475.804688 1517.789062 482.183594 1514.847656 C 488.578125 1511.898438 492.726562 1506.074219 493.808594 1499.617188 C 493.8125 1499.59375 493.816406 1499.566406 493.820312 1499.542969 C 493.847656 1499.390625 493.871094 1499.230469 493.890625 1499.078125 C 493.894531 1499.066406 493.894531 1499.058594 493.894531 1499.050781 C 493.910156 1498.953125 493.933594 1498.859375 493.949219 1498.765625 C 493.96875 1498.660156 493.992188 1498.554688 494.011719 1498.449219 C 494.070312 1498.164062 494.128906 1497.886719 494.195312 1497.605469 C 494.21875 1497.507812 494.246094 1497.410156 494.269531 1497.316406 C 494.34375 1497.03125 494.421875 1496.746094 494.507812 1496.464844 C 494.535156 1496.375 494.566406 1496.285156 494.59375 1496.195312 C 494.6875 1495.914062 494.78125 1495.628906 494.886719 1495.351562 C 494.917969 1495.265625 494.953125 1495.179688 494.988281 1495.09375 C 495.09375 1494.816406 495.207031 1494.535156 495.332031 1494.261719 C 495.367188 1494.179688 495.40625 1494.09375 495.445312 1494.011719 C 495.570312 1493.738281 495.699219 1493.472656 495.835938 1493.207031 C 495.878906 1493.117188 495.929688 1493.03125 495.972656 1492.945312 C 496.113281 1492.691406 496.253906 1492.433594 496.402344 1492.183594 C 496.417969 1492.152344 496.4375 1492.121094 496.453125 1492.09375 C 496.464844 1492.078125 496.472656 1492.066406 496.484375 1492.050781 C 496.589844 1491.886719 496.695312 1491.714844 496.792969 1491.542969 C 496.800781 1491.539062 496.804688 1491.527344 496.808594 1491.523438 C 500.160156 1485.914062 500.773438 1478.808594 497.828125 1472.429688 C 494.882812 1466.035156 489.054688 1461.882812 482.601562 1460.804688 C 482.574219 1460.800781 482.550781 1460.792969 482.527344 1460.792969 C 482.371094 1460.765625 482.214844 1460.742188 482.058594 1460.722656 C 482.050781 1460.71875 482.042969 1460.71875 482.03125 1460.714844 C 475.8125 1459.695312 470.199219 1455.703125 467.359375 1449.546875 C 462.8125 1439.6875 467.121094 1428.007812 476.980469 1423.460938 C 486.839844 1418.914062 498.519531 1423.222656 503.066406 1433.078125 C 505.902344 1439.234375 505.296875 1446.097656 502.039062 1451.492188 C 501.941406 1451.640625 501.84375 1451.792969 501.753906 1451.945312 C 498.367188 1457.566406 497.734375 1464.707031 500.6875 1471.109375 C 503.636719 1477.5 509.457031 1481.648438 515.90625 1482.734375 C 515.914062 1482.734375 515.917969 1482.738281 515.929688 1482.738281 C 516.113281 1482.773438 516.300781 1482.800781 516.488281 1482.824219 C 516.503906 1482.828125 516.519531 1482.832031 516.53125 1482.828125 C 516.789062 1482.871094 517.046875 1482.929688 517.304688 1482.984375 C 517.335938 1482.988281 517.371094 1482.996094 517.402344 1483 C 517.664062 1483.058594 517.921875 1483.121094 518.179688 1483.1875 C 518.253906 1483.207031 518.324219 1483.226562 518.398438 1483.246094 C 518.652344 1483.3125 518.902344 1483.386719 519.152344 1483.464844 C 519.210938 1483.480469 519.269531 1483.5 519.328125 1483.519531 C 520.171875 1483.792969 521 1484.121094 521.800781 1484.503906 C 521.816406 1484.511719 521.832031 1484.519531 521.84375 1484.523438 C 522.089844 1484.644531 522.332031 1484.769531 522.574219 1484.898438 C 522.632812 1484.929688 522.695312 1484.960938 522.753906 1484.992188 C 522.988281 1485.121094 523.222656 1485.257812 523.453125 1485.394531 C 523.5 1485.421875 523.542969 1485.449219 523.585938 1485.480469 C 524.609375 1486.105469 525.578125 1486.828125 526.480469 1487.640625 C 526.515625 1487.671875 526.550781 1487.703125 526.585938 1487.734375 C 526.796875 1487.929688 527.003906 1488.128906 527.207031 1488.332031 C 527.234375 1488.359375 527.261719 1488.386719 527.285156 1488.410156 C 528.15625 1489.289062 528.949219 1490.261719 529.652344 1491.316406 C 529.671875 1491.347656 529.695312 1491.378906 529.714844 1491.414062 C 529.878906 1491.664062 530.039062 1491.917969 530.195312 1492.179688 C 530.214844 1492.214844 530.234375 1492.246094 530.253906 1492.28125 C 530.578125 1492.832031 530.882812 1493.398438 531.15625 1493.992188 C 535.707031 1503.855469 531.398438 1515.535156 521.539062 1520.082031 C 521.1875 1520.242188 520.828125 1520.394531 520.472656 1520.53125 C 520.355469 1520.578125 520.242188 1520.617188 520.125 1520.664062 C 519.882812 1520.75 519.640625 1520.839844 519.398438 1520.917969 C 519.261719 1520.960938 519.121094 1521.007812 518.984375 1521.046875 C 518.753906 1521.117188 518.527344 1521.179688 518.296875 1521.242188 C 518.15625 1521.277344 518.019531 1521.316406 517.882812 1521.351562 C 517.605469 1521.414062 517.328125 1521.476562 517.050781 1521.527344 C 516.882812 1521.5625 516.714844 1521.59375 516.546875 1521.621094 C 516.285156 1521.664062 516.027344 1521.703125 515.769531 1521.738281 C 515.597656 1521.757812 515.425781 1521.773438 515.257812 1521.789062 C 515.070312 1521.808594 514.882812 1521.828125 514.695312 1521.839844 C 514.511719 1521.855469 514.324219 1521.863281 514.136719 1521.871094 C 513.96875 1521.878906 513.800781 1521.882812 513.632812 1521.886719 C 513.4375 1521.890625 513.242188 1521.894531 513.046875 1521.890625 C 512.902344 1521.886719 512.757812 1521.882812 512.609375 1521.875 C 512.191406 1521.859375 511.773438 1521.832031 511.355469 1521.789062 C 511.253906 1521.78125 511.15625 1521.773438 511.054688 1521.761719 C 510.828125 1521.734375 510.601562 1521.699219 510.371094 1521.667969 C 510.257812 1521.648438 510.144531 1521.632812 510.027344 1521.613281 C 509.796875 1521.574219 509.570312 1521.53125 509.339844 1521.484375 C 509.238281 1521.464844 509.136719 1521.441406 509.039062 1521.417969 C 508.796875 1521.363281 508.554688 1521.308594 508.3125 1521.246094 C 508.285156 1521.238281 508.257812 1521.230469 508.230469 1521.222656 C 507.382812 1520.996094 506.554688 1520.710938 505.746094 1520.375 C 505.683594 1520.347656 505.621094 1520.324219 505.558594 1520.296875 C 505.316406 1520.195312 505.078125 1520.085938 504.839844 1519.972656 C 504.777344 1519.941406 504.714844 1519.910156 504.65625 1519.882812 C 504.132812 1519.625 503.621094 1519.355469 503.121094 1519.054688 C 502.972656 1518.957031 502.816406 1518.863281 502.664062 1518.769531 C 497.046875 1515.386719 489.90625 1514.753906 483.5 1517.707031 C 477.113281 1520.652344 472.960938 1526.472656 471.875 1532.925781 C 471.875 1532.933594 471.875 1532.9375 471.875 1532.945312 C 471.839844 1533.132812 471.8125 1533.320312 471.785156 1533.507812 C 471.78125 1533.519531 471.78125 1533.539062 471.78125 1533.550781 C 470.742188 1539.75 466.753906 1545.34375 460.617188 1548.175781 C 450.757812 1552.722656 439.078125 1548.414062 434.53125 1538.558594 C 429.984375 1528.695312 434.289062 1517.015625 444.152344 1512.46875 "/>
<path fill-rule="nonzero" fill="rgb(100%, 100%, 100%)" fill-opacity="1" d="M 402.671875 1382.585938 C 407.835938 1387.199219 410.058594 1393.871094 409.214844 1400.257812 C 409.210938 1400.273438 409.207031 1400.292969 409.207031 1400.308594 C 409.171875 1400.507812 409.140625 1400.710938 409.117188 1400.914062 C 409.117188 1400.921875 409.117188 1400.929688 409.113281 1400.941406 C 408.25 1407.574219 410.570312 1414.507812 415.9375 1419.304688 C 421.3125 1424.113281 428.484375 1425.640625 434.992188 1424.023438 C 435.015625 1424.015625 435.042969 1424.011719 435.066406 1424.003906 C 435.222656 1423.96875 435.378906 1423.925781 435.53125 1423.882812 C 435.542969 1423.878906 435.550781 1423.878906 435.558594 1423.875 C 435.65625 1423.851562 435.753906 1423.832031 435.847656 1423.808594 C 435.957031 1423.785156 436.066406 1423.761719 436.175781 1423.738281 C 436.460938 1423.675781 436.75 1423.617188 437.039062 1423.566406 C 437.140625 1423.550781 437.242188 1423.535156 437.34375 1423.519531 C 437.640625 1423.472656 437.941406 1423.429688 438.238281 1423.398438 C 438.335938 1423.386719 438.429688 1423.378906 438.527344 1423.371094 C 438.832031 1423.339844 439.136719 1423.3125 439.441406 1423.296875 C 439.535156 1423.292969 439.628906 1423.292969 439.722656 1423.289062 C 440.03125 1423.277344 440.335938 1423.269531 440.644531 1423.273438 C 440.742188 1423.273438 440.835938 1423.277344 440.929688 1423.277344 C 441.234375 1423.285156 441.539062 1423.296875 441.84375 1423.316406 C 441.945312 1423.324219 442.042969 1423.332031 442.144531 1423.339844 C 442.441406 1423.367188 442.742188 1423.394531 443.035156 1423.433594 C 443.070312 1423.4375 443.105469 1423.4375 443.140625 1423.441406 C 443.160156 1423.449219 443.175781 1423.453125 443.195312 1423.453125 C 443.394531 1423.484375 443.59375 1423.515625 443.796875 1423.539062 C 443.804688 1423.542969 443.816406 1423.542969 443.824219 1423.542969 C 450.460938 1424.410156 457.390625 1422.085938 462.1875 1416.722656 C 466.996094 1411.34375 468.523438 1404.175781 466.910156 1397.667969 C 466.902344 1397.640625 466.898438 1397.617188 466.886719 1397.59375 C 466.851562 1397.4375 466.808594 1397.28125 466.765625 1397.125 C 466.765625 1397.117188 466.761719 1397.105469 466.757812 1397.097656 C 465.183594 1390.835938 466.648438 1383.929688 471.277344 1378.753906 C 478.691406 1370.460938 491.425781 1369.75 499.71875 1377.164062 C 508.011719 1384.578125 508.722656 1397.3125 501.308594 1405.605469 C 496.683594 1410.78125 489.980469 1413.007812 483.585938 1412.144531 C 483.40625 1412.113281 483.21875 1412.085938 483.039062 1412.0625 C 476.378906 1411.167969 469.410156 1413.484375 464.59375 1418.871094 C 459.789062 1424.246094 458.257812 1431.410156 459.867188 1437.914062 C 459.871094 1437.921875 459.871094 1437.929688 459.875 1437.9375 C 459.917969 1438.125 459.96875 1438.3125 460.019531 1438.496094 C 460.023438 1438.515625 460.027344 1438.53125 460.035156 1438.539062 C 460.097656 1438.800781 460.152344 1439.066406 460.203125 1439.332031 C 460.210938 1439.363281 460.21875 1439.394531 460.226562 1439.429688 C 460.28125 1439.699219 460.324219 1439.964844 460.367188 1440.234375 C 460.378906 1440.3125 460.390625 1440.390625 460.402344 1440.464844 C 460.445312 1440.730469 460.476562 1440.996094 460.507812 1441.261719 C 460.511719 1441.328125 460.515625 1441.386719 460.523438 1441.449219 C 460.613281 1442.355469 460.640625 1443.265625 460.605469 1444.175781 C 460.605469 1444.191406 460.605469 1444.210938 460.605469 1444.226562 C 460.59375 1444.503906 460.574219 1444.785156 460.550781 1445.066406 C 460.546875 1445.132812 460.542969 1445.203125 460.535156 1445.269531 C 460.507812 1445.546875 460.480469 1445.820312 460.441406 1446.09375 C 460.433594 1446.144531 460.425781 1446.199219 460.417969 1446.253906 C 460.246094 1447.46875 459.964844 1448.675781 459.566406 1449.851562 C 459.550781 1449.898438 459.535156 1449.945312 459.519531 1449.992188 C 459.421875 1450.269531 459.320312 1450.546875 459.214844 1450.820312 C 459.199219 1450.855469 459.183594 1450.890625 459.171875 1450.925781 C 458.699219 1452.101562 458.109375 1453.242188 457.402344 1454.332031 C 457.382812 1454.367188 457.363281 1454.398438 457.339844 1454.429688 C 457.171875 1454.6875 456.996094 1454.941406 456.8125 1455.195312 C 456.789062 1455.226562 456.765625 1455.257812 456.742188 1455.292969 C 456.355469 1455.820312 455.949219 1456.339844 455.5 1456.839844 C 448.085938 1465.132812 435.351562 1465.84375 427.058594 1458.429688 C 426.761719 1458.164062 426.476562 1457.890625 426.199219 1457.613281 C 426.109375 1457.523438 426.023438 1457.429688 425.933594 1457.335938 C 425.753906 1457.148438 425.574219 1456.957031 425.402344 1456.761719 C 425.300781 1456.648438 425.203125 1456.535156 425.109375 1456.425781 C 424.949219 1456.238281 424.796875 1456.046875 424.644531 1455.855469 C 424.554688 1455.742188 424.464844 1455.628906 424.375 1455.511719 C 424.199219 1455.277344 424.03125 1455.039062 423.867188 1454.800781 C 423.769531 1454.65625 423.671875 1454.511719 423.578125 1454.363281 C 423.429688 1454.136719 423.285156 1453.914062 423.152344 1453.683594 C 423.058594 1453.53125 422.976562 1453.375 422.890625 1453.222656 C 422.796875 1453.054688 422.703125 1452.886719 422.617188 1452.714844 C 422.527344 1452.546875 422.441406 1452.375 422.359375 1452.207031 C 422.285156 1452.050781 422.210938 1451.890625 422.140625 1451.734375 C 422.054688 1451.550781 421.972656 1451.371094 421.898438 1451.1875 C 421.839844 1451.046875 421.789062 1450.910156 421.734375 1450.769531 C 421.574219 1450.367188 421.429688 1449.964844 421.300781 1449.554688 C 421.269531 1449.457031 421.234375 1449.359375 421.207031 1449.261719 C 421.136719 1449.035156 421.078125 1448.808594 421.015625 1448.582031 C 420.988281 1448.464844 420.957031 1448.351562 420.925781 1448.234375 C 420.871094 1448.003906 420.816406 1447.769531 420.769531 1447.535156 C 420.746094 1447.433594 420.726562 1447.328125 420.707031 1447.222656 C 420.660156 1446.976562 420.613281 1446.726562 420.574219 1446.472656 C 420.570312 1446.441406 420.566406 1446.414062 420.5625 1446.382812 C 420.429688 1445.496094 420.359375 1444.601562 420.34375 1443.707031 C 420.34375 1443.636719 420.34375 1443.566406 420.339844 1443.5 C 420.339844 1443.226562 420.34375 1442.957031 420.355469 1442.6875 C 420.359375 1442.617188 420.359375 1442.550781 420.363281 1442.480469 C 420.390625 1441.886719 420.433594 1441.292969 420.515625 1440.699219 C 420.546875 1440.519531 420.570312 1440.335938 420.597656 1440.15625 C 421.492188 1433.496094 419.171875 1426.523438 413.785156 1421.707031 C 408.414062 1416.902344 401.25 1415.375 394.746094 1416.984375 C 394.738281 1416.984375 394.730469 1416.984375 394.722656 1416.988281 C 394.535156 1417.035156 394.347656 1417.085938 394.160156 1417.136719 C 394.144531 1417.136719 394.128906 1417.144531 394.117188 1417.148438 C 387.867188 1418.699219 380.980469 1417.230469 375.820312 1412.617188 C 367.527344 1405.203125 366.8125 1392.464844 374.226562 1384.175781 C 381.644531 1375.878906 394.378906 1375.167969 402.671875 1382.585938 "/>
<path fill-rule="nonzero" fill="rgb(100%, 100%, 100%)" fill-opacity="1" d="M 348.300781 1603.632812 C 349.714844 1596.855469 354.382812 1591.59375 360.332031 1589.128906 C 360.351562 1589.125 360.367188 1589.121094 360.382812 1589.113281 C 360.574219 1589.042969 360.761719 1588.964844 360.949219 1588.886719 C 360.957031 1588.882812 360.96875 1588.878906 360.976562 1588.875 C 367.15625 1586.308594 371.996094 1580.832031 373.46875 1573.785156 C 374.945312 1566.726562 372.683594 1559.753906 368.027344 1554.925781 C 368.007812 1554.90625 367.992188 1554.886719 367.972656 1554.871094 C 367.863281 1554.753906 367.75 1554.636719 367.632812 1554.527344 C 367.628906 1554.515625 367.621094 1554.511719 367.613281 1554.507812 C 367.546875 1554.433594 367.480469 1554.359375 367.414062 1554.289062 C 367.339844 1554.207031 367.265625 1554.125 367.191406 1554.042969 C 366.992188 1553.824219 366.796875 1553.605469 366.609375 1553.378906 C 366.542969 1553.300781 366.480469 1553.21875 366.414062 1553.140625 C 366.226562 1552.90625 366.039062 1552.667969 365.863281 1552.425781 C 365.804688 1552.347656 365.75 1552.269531 365.691406 1552.1875 C 365.515625 1551.941406 365.339844 1551.6875 365.175781 1551.433594 C 365.125 1551.355469 365.074219 1551.273438 365.023438 1551.195312 C 364.863281 1550.933594 364.703125 1550.671875 364.550781 1550.40625 C 364.503906 1550.320312 364.460938 1550.238281 364.414062 1550.15625 C 364.265625 1549.886719 364.125 1549.617188 363.988281 1549.34375 C 363.945312 1549.253906 363.902344 1549.160156 363.859375 1549.070312 C 363.730469 1548.800781 363.609375 1548.527344 363.492188 1548.253906 C 363.480469 1548.21875 363.464844 1548.1875 363.449219 1548.15625 C 363.445312 1548.140625 363.441406 1548.125 363.433594 1548.105469 C 363.363281 1547.917969 363.285156 1547.726562 363.207031 1547.539062 C 363.203125 1547.53125 363.199219 1547.523438 363.195312 1547.515625 C 360.628906 1541.335938 355.152344 1536.496094 348.105469 1535.023438 C 341.046875 1533.546875 334.074219 1535.808594 329.246094 1540.460938 C 329.226562 1540.480469 329.207031 1540.496094 329.191406 1540.515625 C 329.074219 1540.628906 328.957031 1540.742188 328.847656 1540.855469 C 328.835938 1540.863281 328.832031 1540.871094 328.828125 1540.875 C 324.1875 1545.371094 317.476562 1547.554688 310.679688 1546.136719 C 299.792969 1543.863281 292.808594 1533.1875 295.082031 1522.296875 C 297.359375 1511.410156 308.03125 1504.425781 318.917969 1506.699219 C 325.714844 1508.121094 330.992188 1512.808594 333.441406 1518.78125 C 333.507812 1518.953125 333.578125 1519.125 333.644531 1519.292969 C 336.203125 1525.511719 341.695312 1530.386719 348.765625 1531.863281 C 355.824219 1533.339844 362.789062 1531.082031 367.621094 1526.4375 C 367.625 1526.429688 367.628906 1526.425781 367.636719 1526.417969 C 367.777344 1526.289062 367.914062 1526.148438 368.046875 1526.011719 C 368.0625 1526.003906 368.074219 1525.988281 368.078125 1525.976562 C 368.273438 1525.792969 368.476562 1525.617188 368.675781 1525.4375 C 368.703125 1525.414062 368.726562 1525.390625 368.753906 1525.367188 C 368.957031 1525.1875 369.167969 1525.011719 369.378906 1524.839844 C 369.4375 1524.792969 369.5 1524.742188 369.558594 1524.695312 C 369.769531 1524.53125 369.984375 1524.367188 370.199219 1524.207031 C 370.25 1524.171875 370.304688 1524.136719 370.351562 1524.097656 C 371.09375 1523.570312 371.867188 1523.089844 372.675781 1522.664062 C 372.6875 1522.65625 372.703125 1522.648438 372.714844 1522.640625 C 372.964844 1522.511719 373.214844 1522.386719 373.46875 1522.265625 C 373.53125 1522.238281 373.59375 1522.207031 373.65625 1522.179688 C 373.90625 1522.0625 374.160156 1521.953125 374.414062 1521.847656 C 374.464844 1521.828125 374.515625 1521.808594 374.566406 1521.789062 C 375.707031 1521.328125 376.890625 1520.972656 378.105469 1520.726562 C 378.15625 1520.71875 378.203125 1520.707031 378.253906 1520.699219 C 378.539062 1520.644531 378.832031 1520.59375 379.125 1520.550781 C 379.160156 1520.542969 379.199219 1520.539062 379.238281 1520.535156 C 380.492188 1520.355469 381.773438 1520.296875 383.070312 1520.359375 C 383.109375 1520.363281 383.148438 1520.363281 383.1875 1520.367188 C 383.496094 1520.382812 383.804688 1520.410156 384.113281 1520.441406 C 384.152344 1520.445312 384.191406 1520.449219 384.230469 1520.453125 C 384.882812 1520.523438 385.535156 1520.617188 386.191406 1520.753906 C 397.082031 1523.03125 404.066406 1533.703125 401.792969 1544.589844 C 401.710938 1544.980469 401.617188 1545.363281 401.511719 1545.746094 C 401.480469 1545.867188 401.441406 1545.988281 401.40625 1546.109375 C 401.332031 1546.363281 401.257812 1546.613281 401.171875 1546.863281 C 401.125 1547.003906 401.078125 1547.144531 401.027344 1547.28125 C 400.945312 1547.515625 400.859375 1547.742188 400.765625 1547.96875 C 400.714844 1548.105469 400.660156 1548.242188 400.605469 1548.375 C 400.492188 1548.640625 400.371094 1548.90625 400.246094 1549.167969 C 400.167969 1549.328125 400.089844 1549.484375 400.011719 1549.640625 C 399.886719 1549.878906 399.765625 1550.117188 399.632812 1550.347656 C 399.546875 1550.503906 399.457031 1550.652344 399.367188 1550.804688 C 399.265625 1550.96875 399.167969 1551.132812 399.0625 1551.296875 C 398.960938 1551.457031 398.855469 1551.617188 398.75 1551.773438 C 398.652344 1551.917969 398.550781 1552.058594 398.453125 1552.199219 C 398.335938 1552.363281 398.21875 1552.523438 398.097656 1552.683594 C 398.007812 1552.800781 397.914062 1552.917969 397.820312 1553.035156 C 397.550781 1553.371094 397.273438 1553.699219 396.984375 1554.015625 C 396.914062 1554.089844 396.847656 1554.167969 396.777344 1554.242188 C 396.617188 1554.414062 396.449219 1554.582031 396.285156 1554.75 C 396.199219 1554.832031 396.113281 1554.917969 396.027344 1555 C 395.855469 1555.164062 395.679688 1555.328125 395.503906 1555.488281 C 395.421875 1555.554688 395.34375 1555.625 395.261719 1555.695312 C 395.070312 1555.863281 394.878906 1556.027344 394.679688 1556.183594 C 394.65625 1556.203125 394.628906 1556.222656 394.605469 1556.242188 C 393.90625 1556.800781 393.164062 1557.308594 392.394531 1557.769531 C 392.335938 1557.804688 392.277344 1557.839844 392.21875 1557.875 C 391.984375 1558.011719 391.75 1558.140625 391.511719 1558.269531 C 391.449219 1558.300781 391.386719 1558.332031 391.324219 1558.363281 C 390.796875 1558.636719 390.261719 1558.894531 389.707031 1559.121094 C 389.539062 1559.183594 389.363281 1559.257812 389.195312 1559.324219 C 382.980469 1561.882812 378.101562 1567.375 376.625 1574.445312 C 375.152344 1581.503906 377.410156 1588.46875 382.054688 1593.300781 C 382.0625 1593.304688 382.0625 1593.308594 382.070312 1593.316406 C 382.203125 1593.457031 382.339844 1593.59375 382.476562 1593.726562 C 382.488281 1593.742188 382.5 1593.753906 382.511719 1593.757812 C 386.976562 1598.398438 389.152344 1605.09375 387.734375 1611.871094 C 385.460938 1622.761719 374.789062 1629.746094 363.898438 1627.472656 C 353.007812 1625.195312 346.023438 1614.523438 348.300781 1603.632812 "/>
<path fill-rule="nonzero" fill="rgb(100%, 100%, 100%)" fill-opacity="1" d="M 566.917969 1540.195312 C 560.339844 1542.359375 553.449219 1540.949219 548.339844 1537.023438 C 548.328125 1537.011719 548.316406 1537 548.300781 1536.988281 C 548.144531 1536.863281 547.984375 1536.734375 547.824219 1536.613281 C 547.816406 1536.605469 547.808594 1536.601562 547.800781 1536.597656 C 542.488281 1532.53125 535.324219 1531.074219 528.484375 1533.320312 C 521.632812 1535.574219 516.726562 1541.019531 514.871094 1547.464844 C 514.863281 1547.488281 514.855469 1547.511719 514.851562 1547.539062 C 514.804688 1547.691406 514.761719 1547.847656 514.722656 1548.003906 C 514.71875 1548.015625 514.71875 1548.023438 514.71875 1548.03125 C 514.691406 1548.128906 514.65625 1548.21875 514.628906 1548.316406 C 514.59375 1548.421875 514.558594 1548.527344 514.527344 1548.632812 C 514.4375 1548.910156 514.34375 1549.191406 514.242188 1549.46875 C 514.207031 1549.5625 514.167969 1549.65625 514.132812 1549.753906 C 514.023438 1550.035156 513.910156 1550.3125 513.789062 1550.589844 C 513.753906 1550.679688 513.710938 1550.765625 513.671875 1550.855469 C 513.542969 1551.132812 513.414062 1551.410156 513.273438 1551.679688 C 513.230469 1551.765625 513.1875 1551.847656 513.144531 1551.929688 C 513 1552.203125 512.851562 1552.472656 512.695312 1552.738281 C 512.648438 1552.820312 512.597656 1552.898438 512.546875 1552.980469 C 512.390625 1553.242188 512.226562 1553.5 512.058594 1553.753906 C 512 1553.835938 511.941406 1553.917969 511.886719 1554 C 511.714844 1554.246094 511.542969 1554.488281 511.359375 1554.726562 C 511.339844 1554.757812 511.320312 1554.785156 511.300781 1554.8125 C 511.285156 1554.824219 511.273438 1554.839844 511.265625 1554.855469 C 511.136719 1555.011719 511.007812 1555.167969 510.886719 1555.332031 C 510.882812 1555.339844 510.875 1555.347656 510.871094 1555.351562 C 506.804688 1560.667969 505.347656 1567.832031 507.597656 1574.667969 C 509.847656 1581.519531 515.292969 1586.429688 521.738281 1588.28125 C 521.765625 1588.289062 521.789062 1588.300781 521.8125 1588.304688 C 521.96875 1588.351562 522.121094 1588.390625 522.277344 1588.429688 C 522.289062 1588.433594 522.296875 1588.4375 522.304688 1588.4375 C 528.515625 1590.207031 533.765625 1594.925781 535.933594 1601.523438 C 539.410156 1612.089844 533.65625 1623.476562 523.085938 1626.949219 C 512.519531 1630.425781 501.136719 1624.671875 497.664062 1614.105469 C 495.492188 1607.511719 496.917969 1600.59375 500.863281 1595.488281 C 500.980469 1595.347656 501.09375 1595.199219 501.207031 1595.058594 C 505.3125 1589.734375 506.789062 1582.539062 504.53125 1575.675781 C 502.28125 1568.828125 496.839844 1563.921875 490.402344 1562.0625 C 490.394531 1562.0625 490.390625 1562.058594 490.382812 1562.058594 C 490.195312 1562 490.007812 1561.949219 489.820312 1561.902344 C 489.808594 1561.894531 489.789062 1561.894531 489.777344 1561.894531 C 489.519531 1561.816406 489.265625 1561.730469 489.007812 1561.644531 C 488.976562 1561.636719 488.945312 1561.625 488.914062 1561.613281 C 488.652344 1561.527344 488.398438 1561.433594 488.144531 1561.335938 C 488.070312 1561.308594 487.996094 1561.28125 487.925781 1561.253906 C 487.675781 1561.152344 487.429688 1561.050781 487.183594 1560.941406 C 487.128906 1560.914062 487.070312 1560.890625 487.011719 1560.863281 C 486.183594 1560.484375 485.382812 1560.054688 484.609375 1559.570312 C 484.597656 1559.5625 484.582031 1559.554688 484.570312 1559.546875 C 484.332031 1559.394531 484.101562 1559.238281 483.867188 1559.078125 C 483.8125 1559.039062 483.757812 1559.003906 483.699219 1558.960938 C 483.472656 1558.804688 483.253906 1558.640625 483.03125 1558.472656 C 482.988281 1558.4375 482.949219 1558.402344 482.90625 1558.371094 C 481.9375 1557.613281 481.039062 1556.765625 480.21875 1555.832031 C 480.183594 1555.796875 480.152344 1555.761719 480.117188 1555.722656 C 479.925781 1555.5 479.738281 1555.273438 479.554688 1555.042969 C 479.53125 1555.011719 479.507812 1554.984375 479.484375 1554.953125 C 478.703125 1553.957031 478.011719 1552.875 477.417969 1551.71875 C 477.398438 1551.683594 477.382812 1551.648438 477.363281 1551.613281 C 477.226562 1551.339844 477.09375 1551.0625 476.964844 1550.777344 C 476.949219 1550.742188 476.933594 1550.703125 476.917969 1550.667969 C 476.652344 1550.066406 476.40625 1549.453125 476.199219 1548.820312 C 472.722656 1538.25 478.472656 1526.863281 489.039062 1523.390625 C 489.417969 1523.265625 489.800781 1523.15625 490.179688 1523.054688 C 490.300781 1523.023438 490.425781 1522.996094 490.550781 1522.964844 C 490.804688 1522.902344 491.058594 1522.84375 491.316406 1522.789062 C 491.460938 1522.761719 491.609375 1522.730469 491.753906 1522.707031 C 491.996094 1522.660156 492.234375 1522.625 492.476562 1522.589844 C 492.621094 1522.566406 492.765625 1522.546875 492.910156 1522.527344 C 493.199219 1522.492188 493.488281 1522.464844 493.777344 1522.441406 C 493.953125 1522.429688 494.128906 1522.417969 494.304688 1522.410156 C 494.570312 1522.394531 494.839844 1522.382812 495.105469 1522.382812 C 495.28125 1522.378906 495.460938 1522.382812 495.636719 1522.386719 C 495.828125 1522.386719 496.019531 1522.390625 496.210938 1522.398438 C 496.402344 1522.410156 496.59375 1522.421875 496.78125 1522.433594 C 496.953125 1522.445312 497.128906 1522.460938 497.300781 1522.480469 C 497.5 1522.5 497.699219 1522.519531 497.894531 1522.542969 C 498.042969 1522.5625 498.191406 1522.585938 498.339844 1522.609375 C 498.765625 1522.675781 499.1875 1522.75 499.605469 1522.84375 C 499.707031 1522.863281 499.808594 1522.882812 499.90625 1522.90625 C 500.136719 1522.960938 500.363281 1523.023438 500.589844 1523.082031 C 500.707031 1523.113281 500.820312 1523.144531 500.9375 1523.179688 C 501.164062 1523.246094 501.394531 1523.316406 501.621094 1523.390625 C 501.722656 1523.425781 501.820312 1523.457031 501.921875 1523.492188 C 502.160156 1523.578125 502.402344 1523.660156 502.636719 1523.753906 C 502.664062 1523.765625 502.695312 1523.777344 502.722656 1523.789062 C 503.558594 1524.117188 504.367188 1524.503906 505.148438 1524.941406 C 505.210938 1524.972656 505.269531 1525.007812 505.328125 1525.039062 C 505.566406 1525.175781 505.796875 1525.3125 506.027344 1525.457031 C 506.085938 1525.492188 506.144531 1525.53125 506.203125 1525.570312 C 506.703125 1525.890625 507.195312 1526.226562 507.667969 1526.589844 C 507.808594 1526.707031 507.953125 1526.820312 508.097656 1526.933594 C 513.421875 1531.035156 520.613281 1532.515625 527.480469 1530.257812 C 534.328125 1528.007812 539.230469 1522.566406 541.09375 1516.128906 C 541.09375 1516.121094 541.097656 1516.117188 541.097656 1516.109375 C 541.15625 1515.921875 541.203125 1515.734375 541.25 1515.546875 C 541.257812 1515.53125 541.261719 1515.515625 541.261719 1515.503906 C 543.046875 1509.316406 547.757812 1504.085938 554.335938 1501.925781 C 564.90625 1498.449219 576.289062 1504.199219 579.765625 1514.765625 C 583.238281 1525.335938 577.488281 1536.722656 566.917969 1540.195312 "/>
<path fill-rule="nonzero" fill="rgb(100%, 100%, 100%)" fill-opacity="1" d="M 792.066406 1626.316406 L 627.539062 1626.316406 L 627.539062 1370.390625 L 671.414062 1370.390625 L 671.414062 1583.175781 L 792.066406 1583.175781 Z M 792.066406 1626.316406 "/>
<path fill-rule="nonzero" fill="rgb(100%, 100%, 100%)" fill-opacity="1" d="M 985.839844 1626.316406 L 941.964844 1626.316406 L 941.964844 1612.058594 C 939.039062 1617.910156 933.496094 1622.292969 925.328125 1625.222656 C 917.160156 1628.144531 907.902344 1629.609375 897.542969 1629.609375 C 887.179688 1629.609375 877.191406 1628.203125 867.5625 1625.402344 C 857.929688 1622.605469 850.074219 1618.519531 843.980469 1613.15625 C 828.867188 1599.507812 821.3125 1579.277344 821.3125 1552.464844 L 821.3125 1443.511719 L 865.1875 1443.511719 L 865.1875 1552.464844 C 865.1875 1564.894531 868.902344 1573.851562 876.339844 1579.335938 C 883.769531 1584.820312 893.09375 1587.5625 904.304688 1587.5625 C 909.910156 1587.5625 915.640625 1586.347656 921.492188 1583.90625 C 927.339844 1581.472656 932.214844 1577.6875 936.113281 1572.574219 C 940.011719 1567.453125 941.964844 1560.753906 941.964844 1552.464844 L 941.964844 1443.511719 L 985.839844 1443.511719 Z M 985.839844 1626.316406 "/>
<path fill-rule="nonzero" fill="rgb(100%, 100%, 100%)" fill-opacity="1" d="M 1302.457031 1626.316406 L 1258.578125 1626.316406 L 1258.578125 1521.023438 C 1258.578125 1508.105469 1255.472656 1499.027344 1249.257812 1493.785156 C 1243.042969 1488.546875 1234.6875 1485.925781 1224.214844 1485.925781 C 1213.484375 1485.925781 1204.160156 1488.546875 1196.242188 1493.785156 C 1188.320312 1499.027344 1184.359375 1508.105469 1184.359375 1521.023438 L 1184.359375 1626.316406 L 1141.953125 1626.316406 L 1141.953125 1521.023438 C 1141.953125 1508.105469 1138.480469 1499.085938 1131.53125 1493.96875 C 1124.585938 1488.847656 1116.359375 1486.289062 1106.851562 1486.289062 C 1100.027344 1486.289062 1093.507812 1487.386719 1087.292969 1489.582031 C 1081.078125 1491.773438 1076.019531 1495.371094 1072.121094 1500.367188 C 1068.21875 1505.363281 1066.269531 1512.246094 1066.269531 1521.023438 L 1066.269531 1626.316406 L 1022.398438 1626.316406 L 1022.398438 1443.511719 L 1066.269531 1443.511719 L 1066.269531 1457.40625 C 1072.121094 1451.554688 1078.882812 1447.480469 1086.558594 1445.160156 C 1094.238281 1442.84375 1101.855469 1441.683594 1109.414062 1441.683594 C 1120.621094 1441.683594 1131.285156 1443.695312 1141.402344 1447.71875 C 1151.515625 1451.738281 1159.621094 1457.769531 1165.714844 1465.816406 C 1172.050781 1457.769531 1181.070312 1451.738281 1192.773438 1447.71875 C 1204.472656 1443.695312 1215.804688 1441.683594 1226.773438 1441.683594 C 1240.417969 1441.683594 1252.972656 1445.039062 1264.429688 1451.738281 C 1275.882812 1458.445312 1285.085938 1467.707031 1292.035156 1479.523438 C 1298.980469 1491.351562 1302.457031 1505.183594 1302.457031 1521.023438 Z M 1302.457031 1626.316406 "/>
<path fill-rule="nonzero" fill="rgb(100%, 100%, 100%)" fill-opacity="1" d="M 1424.195312 1482.265625 C 1409.324219 1482.265625 1398.054688 1486.289062 1390.375 1494.332031 C 1382.699219 1502.375 1378.859375 1511.277344 1378.859375 1521.023438 L 1469.167969 1521.023438 C 1469.167969 1511.03125 1465.324219 1502.070312 1457.648438 1494.152344 C 1449.96875 1486.230469 1438.820312 1482.265625 1424.195312 1482.265625 M 1506.824219 1551.730469 L 1378.859375 1551.730469 C 1379.828125 1562.703125 1383.976562 1571.109375 1391.289062 1576.960938 C 1398.601562 1582.808594 1407.617188 1586.164062 1418.347656 1587.015625 C 1429.066406 1587.871094 1440.097656 1586.40625 1451.433594 1582.625 C 1462.765625 1578.851562 1472.941406 1573.0625 1481.960938 1565.261719 L 1506.089844 1598.53125 C 1492.683594 1609.746094 1479.09375 1617.722656 1465.324219 1622.480469 C 1451.550781 1627.230469 1437.960938 1629.609375 1424.5625 1629.609375 C 1393.601562 1629.609375 1370.386719 1620.957031 1354.910156 1603.652344 C 1339.429688 1586.347656 1331.695312 1561.847656 1331.695312 1530.160156 C 1331.695312 1512.125 1335.289062 1496.40625 1342.480469 1482.996094 C 1349.667969 1469.597656 1359.90625 1459.234375 1373.191406 1451.921875 C 1386.472656 1444.609375 1402.132812 1441.078125 1420.175781 1441.320312 C 1459.660156 1441.808594 1485.980469 1457.285156 1499.144531 1487.753906 C 1502.800781 1496.523438 1505.175781 1506.15625 1506.273438 1516.636719 C 1507.371094 1527.117188 1507.554688 1538.816406 1506.824219 1551.730469 "/>
<path fill-rule="nonzero" fill="rgb(100%, 100%, 100%)" fill-opacity="1" d="M 1705.347656 1626.316406 L 1661.476562 1626.316406 L 1661.476562 1519.558594 C 1661.476562 1509.570312 1659.582031 1502.074219 1655.804688 1497.074219 C 1652.023438 1492.082031 1647.398438 1488.726562 1641.914062 1487.019531 C 1636.429688 1485.316406 1631.128906 1484.460938 1626.007812 1484.460938 C 1621.128906 1484.460938 1615.464844 1485.316406 1609.007812 1487.019531 C 1602.546875 1488.726562 1596.882812 1492.082031 1592.007812 1497.074219 C 1587.128906 1502.074219 1584.695312 1509.570312 1584.695312 1519.558594 L 1584.695312 1626.316406 L 1540.824219 1626.316406 L 1540.824219 1443.511719 L 1584.695312 1443.511719 L 1584.695312 1456.675781 C 1588.835938 1451.070312 1595.300781 1447.109375 1604.070312 1444.792969 C 1612.847656 1442.476562 1621.257812 1441.320312 1629.300781 1441.320312 C 1644.894531 1441.320312 1658.363281 1444.609375 1669.699219 1451.191406 C 1681.035156 1457.769531 1689.808594 1466.910156 1696.023438 1478.609375 C 1702.242188 1490.308594 1705.347656 1503.964844 1705.347656 1519.558594 Z M 1705.347656 1626.316406 "/>
<path fill-rule="nonzero" fill="rgb(100%, 100%, 100%)" fill-opacity="1" d="M 2000 1000 L 0 1000 L 0 0 L 2000 0 Z M 2000 1000 "/>
<path fill-rule="nonzero" fill="rgb(0.392157%, 15.686275%, 31.764706%)" fill-opacity="1" d="M 440.039062 502.769531 C 434.523438 498.871094 431.621094 492.648438 431.726562 486.359375 C 431.730469 486.34375 431.730469 486.328125 431.730469 486.308594 C 431.742188 486.113281 431.746094 485.914062 431.75 485.714844 C 431.75 485.707031 431.746094 485.695312 431.75 485.6875 C 431.847656 479.15625 428.824219 472.695312 423.085938 468.640625 C 417.335938 464.578125 410.214844 463.898438 404.085938 466.1875 C 404.058594 466.199219 404.035156 466.207031 404.015625 466.21875 C 403.867188 466.269531 403.71875 466.328125 403.574219 466.386719 C 403.566406 466.390625 403.558594 466.394531 403.550781 466.398438 C 403.460938 466.433594 403.367188 466.457031 403.277344 466.492188 C 403.175781 466.527344 403.070312 466.5625 402.96875 466.597656 C 402.695312 466.691406 402.425781 466.777344 402.148438 466.859375 C 402.054688 466.890625 401.957031 466.914062 401.859375 466.941406 C 401.574219 467.019531 401.292969 467.09375 401.007812 467.160156 C 400.914062 467.179688 400.820312 467.199219 400.730469 467.21875 C 400.4375 467.28125 400.144531 467.339844 399.851562 467.390625 C 399.761719 467.402344 399.667969 467.417969 399.578125 467.429688 C 399.28125 467.476562 398.984375 467.515625 398.6875 467.546875 C 398.59375 467.558594 398.503906 467.566406 398.410156 467.574219 C 398.113281 467.601562 397.816406 467.625 397.519531 467.640625 C 397.421875 467.644531 397.320312 467.644531 397.222656 467.648438 C 396.933594 467.65625 396.640625 467.664062 396.347656 467.660156 C 396.316406 467.660156 396.28125 467.660156 396.246094 467.660156 C 396.230469 467.660156 396.214844 467.65625 396.195312 467.65625 C 395.996094 467.648438 395.800781 467.640625 395.601562 467.640625 C 395.59375 467.640625 395.582031 467.640625 395.574219 467.640625 C 389.042969 467.539062 382.582031 470.5625 378.527344 476.300781 C 374.464844 482.050781 373.78125 489.171875 376.074219 495.300781 C 376.085938 495.328125 376.089844 495.351562 376.101562 495.375 C 376.15625 495.523438 376.214844 495.667969 376.273438 495.8125 C 376.273438 495.824219 376.277344 495.832031 376.28125 495.835938 C 378.507812 501.734375 377.859375 508.59375 373.945312 514.132812 C 367.683594 522.996094 355.414062 525.109375 346.542969 518.839844 C 337.675781 512.578125 335.566406 500.308594 341.832031 491.441406 C 345.742188 485.90625 351.992188 483 358.289062 483.125 C 358.46875 483.136719 358.652344 483.140625 358.828125 483.144531 C 365.386719 483.269531 371.886719 480.242188 375.957031 474.484375 C 380.015625 468.738281 380.699219 461.621094 378.414062 455.492188 C 378.410156 455.484375 378.410156 455.480469 378.40625 455.472656 C 378.34375 455.292969 378.273438 455.121094 378.203125 454.945312 C 378.199219 454.929688 378.191406 454.914062 378.183594 454.90625 C 378.09375 454.65625 378.011719 454.40625 377.929688 454.15625 C 377.921875 454.125 377.910156 454.09375 377.898438 454.066406 C 377.816406 453.8125 377.742188 453.554688 377.671875 453.296875 C 377.648438 453.226562 377.628906 453.152344 377.609375 453.078125 C 377.542969 452.828125 377.480469 452.574219 377.421875 452.316406 C 377.410156 452.257812 377.398438 452.199219 377.386719 452.136719 C 377.199219 451.269531 377.070312 450.390625 377 449.503906 C 377 449.488281 376.996094 449.472656 376.996094 449.457031 C 376.976562 449.183594 376.964844 448.910156 376.953125 448.636719 C 376.953125 448.570312 376.949219 448.5 376.949219 448.433594 C 376.941406 448.164062 376.941406 447.898438 376.945312 447.625 C 376.945312 447.574219 376.949219 447.523438 376.949219 447.46875 C 376.980469 446.269531 377.121094 445.070312 377.375 443.882812 C 377.386719 443.835938 377.394531 443.792969 377.40625 443.746094 C 377.46875 443.464844 377.535156 443.183594 377.609375 442.90625 C 377.621094 442.871094 377.632812 442.835938 377.640625 442.800781 C 377.96875 441.605469 378.410156 440.4375 378.972656 439.300781 C 378.992188 439.265625 379.007812 439.230469 379.023438 439.195312 C 379.160156 438.925781 379.300781 438.660156 379.449219 438.398438 C 379.46875 438.363281 379.488281 438.328125 379.507812 438.296875 C 379.824219 437.738281 380.160156 437.191406 380.539062 436.65625 C 386.804688 427.785156 399.074219 425.675781 407.941406 431.941406 C 408.257812 432.167969 408.566406 432.402344 408.867188 432.640625 C 408.964844 432.71875 409.058594 432.796875 409.152344 432.875 C 409.351562 433.039062 409.546875 433.207031 409.734375 433.378906 C 409.84375 433.476562 409.949219 433.570312 410.054688 433.671875 C 410.230469 433.835938 410.398438 434 410.566406 434.171875 C 410.667969 434.273438 410.769531 434.371094 410.867188 434.476562 C 411.0625 434.679688 411.253906 434.894531 411.4375 435.105469 C 411.550781 435.234375 411.660156 435.367188 411.769531 435.496094 C 411.9375 435.699219 412.101562 435.902344 412.261719 436.109375 C 412.363281 436.246094 412.464844 436.390625 412.5625 436.527344 C 412.671875 436.679688 412.78125 436.832031 412.886719 436.988281 C 412.992188 437.144531 413.09375 437.296875 413.191406 437.457031 C 413.28125 437.597656 413.371094 437.742188 413.457031 437.886719 C 413.558594 438.054688 413.660156 438.222656 413.753906 438.390625 C 413.824219 438.519531 413.890625 438.648438 413.960938 438.777344 C 414.15625 439.148438 414.339844 439.527344 414.515625 439.90625 C 414.554688 440 414.597656 440.089844 414.636719 440.179688 C 414.730469 440.390625 414.8125 440.605469 414.898438 440.820312 C 414.941406 440.925781 414.984375 441.035156 415.023438 441.144531 C 415.105469 441.363281 415.183594 441.582031 415.253906 441.804688 C 415.289062 441.902344 415.316406 442 415.347656 442.101562 C 415.425781 442.335938 415.496094 442.574219 415.5625 442.8125 C 415.570312 442.84375 415.574219 442.871094 415.585938 442.898438 C 415.8125 443.746094 415.980469 444.605469 416.09375 445.472656 C 416.101562 445.539062 416.109375 445.605469 416.117188 445.671875 C 416.148438 445.933594 416.175781 446.195312 416.195312 446.460938 C 416.203125 446.527344 416.207031 446.59375 416.210938 446.664062 C 416.25 447.242188 416.273438 447.824219 416.261719 448.40625 C 416.253906 448.582031 416.246094 448.765625 416.242188 448.941406 C 416.121094 455.5 419.144531 462 424.902344 466.070312 C 430.648438 470.128906 437.765625 470.8125 443.894531 468.53125 C 443.902344 468.527344 443.90625 468.527344 443.914062 468.523438 C 444.09375 468.457031 444.269531 468.386719 444.445312 468.316406 C 444.460938 468.3125 444.472656 468.304688 444.484375 468.296875 C 450.371094 466.101562 457.214844 466.753906 462.730469 470.652344 C 471.601562 476.921875 473.710938 489.191406 467.445312 498.054688 C 461.179688 506.925781 448.910156 509.035156 440.039062 502.769531 "/>
<path fill-rule="nonzero" fill="rgb(0.392157%, 15.686275%, 31.764706%)" fill-opacity="1" d="M 433.699219 511.175781 C 433.082031 517.90625 429.144531 523.53125 423.648438 526.582031 C 423.632812 526.585938 423.617188 526.59375 423.601562 526.601562 C 423.425781 526.691406 423.25 526.785156 423.078125 526.882812 C 423.070312 526.886719 423.0625 526.894531 423.054688 526.898438 C 417.347656 530.078125 413.265625 535.925781 412.621094 542.921875 C 411.980469 549.933594 414.949219 556.441406 420 560.605469 C 420.019531 560.621094 420.035156 560.636719 420.058594 560.652344 C 420.179688 560.753906 420.300781 560.851562 420.425781 560.949219 C 420.433594 560.957031 420.441406 560.960938 420.445312 560.964844 C 420.523438 561.023438 420.59375 561.09375 420.664062 561.15625 C 420.746094 561.222656 420.828125 561.296875 420.910156 561.367188 C 421.125 561.554688 421.339844 561.75 421.546875 561.945312 C 421.621094 562.015625 421.691406 562.085938 421.761719 562.15625 C 421.972656 562.363281 422.179688 562.570312 422.378906 562.785156 C 422.441406 562.855469 422.507812 562.925781 422.570312 562.996094 C 422.769531 563.21875 422.964844 563.441406 423.15625 563.671875 C 423.214844 563.742188 423.269531 563.816406 423.328125 563.886719 C 423.515625 564.121094 423.699219 564.359375 423.875 564.601562 C 423.929688 564.675781 423.984375 564.75 424.035156 564.828125 C 424.207031 565.070312 424.375 565.316406 424.539062 565.566406 C 424.589844 565.648438 424.640625 565.734375 424.691406 565.816406 C 424.847656 566.0625 424.996094 566.3125 425.140625 566.566406 C 425.15625 566.597656 425.175781 566.628906 425.191406 566.65625 C 425.199219 566.671875 425.207031 566.6875 425.214844 566.707031 C 425.304688 566.878906 425.398438 567.054688 425.496094 567.226562 C 425.5 567.234375 425.507812 567.242188 425.511719 567.25 C 428.691406 572.957031 434.539062 577.042969 441.535156 577.683594 C 448.546875 578.328125 455.054688 575.355469 459.21875 570.304688 C 459.234375 570.285156 459.25 570.265625 459.265625 570.246094 C 459.367188 570.125 459.464844 570.003906 459.558594 569.878906 C 459.566406 569.871094 459.570312 569.867188 459.578125 569.859375 C 463.570312 564.980469 469.835938 562.113281 476.585938 562.734375 C 487.398438 563.726562 495.359375 573.296875 494.367188 584.109375 C 493.375 594.921875 483.804688 602.882812 472.992188 601.890625 C 466.246094 601.273438 460.605469 597.3125 457.5625 591.796875 C 457.484375 591.636719 457.394531 591.476562 457.3125 591.320312 C 454.140625 585.578125 448.269531 581.460938 441.246094 580.816406 C 434.242188 580.175781 427.738281 583.140625 423.570312 588.183594 C 423.566406 588.191406 423.5625 588.195312 423.558594 588.203125 C 423.433594 588.34375 423.320312 588.496094 423.203125 588.640625 C 423.191406 588.652344 423.179688 588.667969 423.175781 588.679688 C 423.007812 588.882812 422.832031 589.074219 422.65625 589.269531 C 422.636719 589.296875 422.613281 589.320312 422.59375 589.34375 C 422.414062 589.542969 422.230469 589.734375 422.042969 589.925781 C 421.988281 589.980469 421.9375 590.035156 421.882812 590.085938 C 421.699219 590.273438 421.507812 590.453125 421.316406 590.632812 C 421.273438 590.671875 421.226562 590.714844 421.179688 590.753906 C 420.519531 591.351562 419.824219 591.902344 419.089844 592.40625 C 419.078125 592.414062 419.066406 592.421875 419.050781 592.429688 C 418.824219 592.585938 418.597656 592.730469 418.363281 592.878906 C 418.304688 592.914062 418.25 592.949219 418.191406 592.984375 C 417.960938 593.125 417.730469 593.257812 417.492188 593.390625 C 417.445312 593.414062 417.402344 593.4375 417.355469 593.464844 C 416.300781 594.035156 415.191406 594.515625 414.039062 594.886719 C 413.992188 594.902344 413.945312 594.917969 413.902344 594.929688 C 413.625 595.019531 413.351562 595.097656 413.074219 595.171875 C 413.035156 595.183594 413 595.191406 412.964844 595.203125 C 411.769531 595.515625 410.53125 595.714844 409.265625 595.796875 C 409.230469 595.800781 409.191406 595.800781 409.152344 595.804688 C 408.851562 595.820312 408.550781 595.832031 408.246094 595.835938 C 408.207031 595.835938 408.167969 595.835938 408.132812 595.835938 C 407.492188 595.839844 406.847656 595.824219 406.195312 595.761719 C 395.382812 594.769531 387.417969 585.199219 388.410156 574.390625 C 388.445312 574 388.496094 573.621094 388.554688 573.238281 C 388.574219 573.117188 388.59375 572.996094 388.617188 572.871094 C 388.660156 572.621094 388.707031 572.367188 388.757812 572.117188 C 388.789062 571.976562 388.820312 571.835938 388.851562 571.691406 C 388.90625 571.460938 388.964844 571.230469 389.027344 571 C 389.066406 570.863281 389.101562 570.722656 389.140625 570.589844 C 389.222656 570.316406 389.3125 570.046875 389.402344 569.777344 C 389.457031 569.617188 389.515625 569.453125 389.578125 569.292969 C 389.667969 569.050781 389.761719 568.804688 389.863281 568.5625 C 389.929688 568.40625 390 568.25 390.070312 568.09375 C 390.148438 567.921875 390.226562 567.75 390.308594 567.582031 C 390.390625 567.414062 390.476562 567.25 390.5625 567.085938 C 390.640625 566.933594 390.722656 566.785156 390.804688 566.636719 C 390.898438 566.46875 390.992188 566.296875 391.089844 566.128906 C 391.164062 566.003906 391.246094 565.882812 391.320312 565.761719 C 391.546875 565.402344 391.777344 565.054688 392.023438 564.714844 C 392.082031 564.632812 392.136719 564.550781 392.199219 564.46875 C 392.335938 564.285156 392.476562 564.105469 392.621094 563.925781 C 392.695312 563.835938 392.765625 563.742188 392.839844 563.652344 C 392.988281 563.472656 393.140625 563.296875 393.296875 563.125 C 393.363281 563.046875 393.433594 562.96875 393.503906 562.894531 C 393.671875 562.710938 393.84375 562.53125 394.015625 562.351562 C 394.039062 562.332031 394.058594 562.3125 394.078125 562.292969 C 394.699219 561.671875 395.359375 561.097656 396.054688 560.5625 C 396.109375 560.523438 396.160156 560.480469 396.214844 560.441406 C 396.425781 560.285156 396.640625 560.128906 396.859375 559.980469 C 396.914062 559.941406 396.96875 559.90625 397.027344 559.867188 C 397.507812 559.542969 398 559.230469 398.507812 558.953125 C 398.667969 558.871094 398.828125 558.785156 398.984375 558.699219 C 404.726562 555.527344 408.84375 549.65625 409.488281 542.632812 C 410.128906 535.628906 407.164062 529.125 402.121094 524.957031 C 402.113281 524.953125 402.109375 524.949219 402.105469 524.945312 C 401.957031 524.820312 401.8125 524.707031 401.660156 524.589844 C 401.652344 524.578125 401.636719 524.566406 401.625 524.5625 C 396.777344 520.5625 393.925781 514.3125 394.542969 507.582031 C 395.535156 496.769531 405.105469 488.808594 415.914062 489.800781 C 426.730469 490.792969 434.691406 500.359375 433.699219 511.175781 "/>
<path fill-rule="nonzero" fill="rgb(0.392157%, 15.686275%, 31.764706%)" fill-opacity="1" d="M 444.152344 512.46875 C 450.289062 509.636719 457.128906 510.238281 462.519531 513.472656 C 462.53125 513.480469 462.542969 513.492188 462.5625 513.5 C 462.726562 513.605469 462.894531 513.710938 463.066406 513.8125 C 463.074219 513.816406 463.082031 513.820312 463.089844 513.824219 C 468.695312 517.175781 475.804688 517.789062 482.183594 514.847656 C 488.578125 511.898438 492.726562 506.074219 493.808594 499.617188 C 493.8125 499.59375 493.816406 499.566406 493.820312 499.542969 C 493.847656 499.390625 493.871094 499.230469 493.890625 499.078125 C 493.894531 499.066406 493.894531 499.058594 493.894531 499.050781 C 493.910156 498.953125 493.933594 498.859375 493.949219 498.765625 C 493.96875 498.660156 493.992188 498.554688 494.011719 498.449219 C 494.070312 498.164062 494.128906 497.886719 494.195312 497.605469 C 494.21875 497.507812 494.246094 497.410156 494.269531 497.316406 C 494.34375 497.03125 494.421875 496.746094 494.507812 496.464844 C 494.535156 496.375 494.566406 496.285156 494.59375 496.195312 C 494.6875 495.914062 494.78125 495.628906 494.886719 495.351562 C 494.917969 495.265625 494.953125 495.179688 494.988281 495.09375 C 495.09375 494.816406 495.207031 494.535156 495.332031 494.261719 C 495.367188 494.179688 495.40625 494.09375 495.445312 494.011719 C 495.570312 493.738281 495.699219 493.472656 495.835938 493.207031 C 495.878906 493.117188 495.929688 493.03125 495.972656 492.945312 C 496.113281 492.691406 496.253906 492.433594 496.402344 492.183594 C 496.417969 492.152344 496.4375 492.121094 496.453125 492.09375 C 496.464844 492.078125 496.472656 492.066406 496.484375 492.050781 C 496.589844 491.886719 496.695312 491.714844 496.792969 491.542969 C 496.800781 491.539062 496.804688 491.527344 496.808594 491.523438 C 500.160156 485.914062 500.773438 478.808594 497.828125 472.429688 C 494.882812 466.035156 489.054688 461.882812 482.601562 460.804688 C 482.574219 460.796875 482.550781 460.792969 482.527344 460.792969 C 482.371094 460.765625 482.214844 460.742188 482.058594 460.722656 C 482.050781 460.71875 482.042969 460.71875 482.03125 460.714844 C 475.8125 459.695312 470.199219 455.703125 467.359375 449.546875 C 462.8125 439.6875 467.121094 428.007812 476.980469 423.460938 C 486.839844 418.914062 498.519531 423.222656 503.066406 433.078125 C 505.902344 439.234375 505.296875 446.097656 502.039062 451.492188 C 501.941406 451.640625 501.84375 451.792969 501.753906 451.945312 C 498.367188 457.566406 497.734375 464.707031 500.6875 471.109375 C 503.636719 477.5 509.457031 481.648438 515.90625 482.734375 C 515.914062 482.734375 515.917969 482.738281 515.929688 482.738281 C 516.113281 482.773438 516.300781 482.796875 516.488281 482.824219 C 516.503906 482.832031 516.519531 482.832031 516.53125 482.828125 C 516.789062 482.871094 517.046875 482.929688 517.304688 482.984375 C 517.335938 482.988281 517.371094 482.996094 517.402344 483.003906 C 517.664062 483.058594 517.921875 483.121094 518.179688 483.1875 C 518.253906 483.207031 518.324219 483.226562 518.398438 483.246094 C 518.652344 483.3125 518.902344 483.386719 519.152344 483.464844 C 519.210938 483.480469 519.269531 483.5 519.328125 483.519531 C 520.171875 483.792969 521 484.121094 521.800781 484.503906 C 521.816406 484.511719 521.832031 484.519531 521.84375 484.523438 C 522.089844 484.644531 522.332031 484.769531 522.574219 484.898438 C 522.632812 484.929688 522.695312 484.960938 522.753906 484.992188 C 522.988281 485.121094 523.222656 485.257812 523.453125 485.394531 C 523.5 485.421875 523.542969 485.449219 523.585938 485.480469 C 524.609375 486.105469 525.578125 486.828125 526.480469 487.640625 C 526.515625 487.671875 526.550781 487.703125 526.585938 487.734375 C 526.796875 487.929688 527.003906 488.128906 527.207031 488.332031 C 527.234375 488.359375 527.261719 488.386719 527.285156 488.410156 C 528.15625 489.289062 528.949219 490.261719 529.652344 491.316406 C 529.671875 491.347656 529.695312 491.378906 529.714844 491.414062 C 529.878906 491.664062 530.039062 491.917969 530.195312 492.179688 C 530.214844 492.210938 530.234375 492.246094 530.253906 492.28125 C 530.578125 492.832031 530.882812 493.398438 531.15625 493.992188 C 535.707031 503.855469 531.398438 515.535156 521.539062 520.082031 C 521.1875 520.242188 520.828125 520.394531 520.472656 520.53125 C 520.355469 520.578125 520.242188 520.617188 520.125 520.664062 C 519.882812 520.75 519.640625 520.835938 519.398438 520.917969 C 519.261719 520.960938 519.121094 521.003906 518.984375 521.046875 C 518.753906 521.117188 518.527344 521.179688 518.296875 521.242188 C 518.15625 521.277344 518.019531 521.316406 517.882812 521.351562 C 517.605469 521.414062 517.328125 521.476562 517.050781 521.527344 C 516.882812 521.5625 516.714844 521.59375 516.546875 521.621094 C 516.285156 521.664062 516.027344 521.703125 515.769531 521.738281 C 515.597656 521.757812 515.425781 521.773438 515.257812 521.789062 C 515.070312 521.808594 514.882812 521.828125 514.695312 521.839844 C 514.511719 521.855469 514.324219 521.863281 514.136719 521.871094 C 513.96875 521.878906 513.800781 521.882812 513.632812 521.886719 C 513.4375 521.890625 513.242188 521.894531 513.046875 521.890625 C 512.902344 521.886719 512.757812 521.878906 512.609375 521.875 C 512.191406 521.859375 511.773438 521.832031 511.355469 521.789062 C 511.253906 521.78125 511.15625 521.773438 511.054688 521.761719 C 510.828125 521.734375 510.601562 521.699219 510.371094 521.667969 C 510.257812 521.648438 510.144531 521.632812 510.027344 521.613281 C 509.796875 521.574219 509.570312 521.53125 509.339844 521.484375 C 509.238281 521.460938 509.136719 521.441406 509.039062 521.417969 C 508.796875 521.363281 508.554688 521.308594 508.3125 521.246094 C 508.285156 521.238281 508.257812 521.230469 508.230469 521.222656 C 507.382812 520.996094 506.554688 520.710938 505.746094 520.375 C 505.683594 520.347656 505.621094 520.324219 505.558594 520.296875 C 505.316406 520.195312 505.078125 520.085938 504.839844 519.972656 C 504.777344 519.941406 504.714844 519.910156 504.65625 519.882812 C 504.132812 519.625 503.621094 519.355469 503.121094 519.054688 C 502.972656 518.957031 502.816406 518.863281 502.664062 518.769531 C 497.046875 515.386719 489.90625 514.753906 483.5 517.707031 C 477.113281 520.652344 472.960938 526.476562 471.875 532.921875 C 471.875 532.933594 471.875 532.9375 471.875 532.945312 C 471.839844 533.132812 471.8125 533.320312 471.785156 533.503906 C 471.78125 533.519531 471.78125 533.539062 471.78125 533.550781 C 470.742188 539.75 466.753906 545.34375 460.617188 548.175781 C 450.757812 552.722656 439.078125 548.414062 434.53125 538.558594 C 429.984375 528.695312 434.289062 517.015625 444.152344 512.46875 "/>
<path fill-rule="nonzero" fill="rgb(0.392157%, 15.686275%, 31.764706%)" fill-opacity="1" d="M 402.671875 382.585938 C 407.835938 387.199219 410.058594 393.871094 409.214844 400.257812 C 409.210938 400.273438 409.207031 400.292969 409.207031 400.308594 C 409.171875 400.507812 409.140625 400.710938 409.117188 400.914062 C 409.117188 400.921875 409.117188 400.929688 409.113281 400.9375 C 408.25 407.574219 410.570312 414.507812 415.9375 419.304688 C 421.3125 424.113281 428.484375 425.640625 434.992188 424.023438 C 435.015625 424.015625 435.042969 424.011719 435.066406 424.003906 C 435.222656 423.96875 435.378906 423.925781 435.53125 423.882812 C 435.542969 423.878906 435.550781 423.878906 435.558594 423.875 C 435.65625 423.851562 435.753906 423.832031 435.847656 423.808594 C 435.957031 423.785156 436.066406 423.761719 436.175781 423.738281 C 436.460938 423.675781 436.75 423.617188 437.039062 423.566406 C 437.140625 423.550781 437.242188 423.535156 437.34375 423.519531 C 437.640625 423.472656 437.941406 423.429688 438.238281 423.398438 C 438.335938 423.386719 438.429688 423.378906 438.527344 423.371094 C 438.832031 423.339844 439.136719 423.3125 439.441406 423.296875 C 439.535156 423.292969 439.628906 423.292969 439.722656 423.289062 C 440.03125 423.277344 440.335938 423.269531 440.644531 423.269531 C 440.742188 423.273438 440.835938 423.277344 440.929688 423.277344 C 441.234375 423.285156 441.539062 423.296875 441.84375 423.316406 C 441.945312 423.324219 442.042969 423.332031 442.144531 423.339844 C 442.441406 423.367188 442.742188 423.394531 443.035156 423.433594 C 443.070312 423.4375 443.105469 423.4375 443.140625 423.441406 C 443.160156 423.449219 443.175781 423.453125 443.195312 423.453125 C 443.394531 423.488281 443.59375 423.515625 443.796875 423.539062 C 443.804688 423.542969 443.816406 423.542969 443.824219 423.542969 C 450.460938 424.410156 457.390625 422.085938 462.1875 416.722656 C 466.996094 411.34375 468.523438 404.175781 466.910156 397.667969 C 466.902344 397.640625 466.898438 397.617188 466.886719 397.59375 C 466.851562 397.4375 466.808594 397.28125 466.765625 397.125 C 466.765625 397.117188 466.761719 397.105469 466.757812 397.097656 C 465.183594 390.835938 466.648438 383.929688 471.277344 378.753906 C 478.691406 370.460938 491.425781 369.75 499.71875 377.164062 C 508.011719 384.578125 508.722656 397.3125 501.308594 405.605469 C 496.683594 410.78125 489.980469 413.007812 483.585938 412.144531 C 483.40625 412.113281 483.21875 412.085938 483.039062 412.0625 C 476.378906 411.167969 469.410156 413.488281 464.59375 418.871094 C 459.789062 424.246094 458.257812 431.410156 459.867188 437.914062 C 459.871094 437.921875 459.871094 437.929688 459.875 437.9375 C 459.917969 438.125 459.96875 438.3125 460.019531 438.496094 C 460.023438 438.515625 460.027344 438.53125 460.035156 438.539062 C 460.097656 438.800781 460.152344 439.066406 460.203125 439.332031 C 460.210938 439.363281 460.21875 439.394531 460.226562 439.429688 C 460.28125 439.699219 460.324219 439.964844 460.367188 440.234375 C 460.378906 440.3125 460.390625 440.386719 460.402344 440.464844 C 460.445312 440.730469 460.476562 440.996094 460.507812 441.261719 C 460.511719 441.324219 460.515625 441.386719 460.523438 441.449219 C 460.613281 442.355469 460.640625 443.265625 460.605469 444.175781 C 460.605469 444.195312 460.605469 444.210938 460.605469 444.226562 C 460.59375 444.503906 460.574219 444.785156 460.550781 445.066406 C 460.546875 445.132812 460.542969 445.203125 460.535156 445.269531 C 460.507812 445.546875 460.480469 445.820312 460.441406 446.09375 C 460.433594 446.144531 460.425781 446.199219 460.417969 446.253906 C 460.246094 447.46875 459.964844 448.675781 459.566406 449.851562 C 459.550781 449.898438 459.535156 449.945312 459.519531 449.992188 C 459.421875 450.269531 459.320312 450.546875 459.214844 450.820312 C 459.199219 450.855469 459.183594 450.890625 459.171875 450.925781 C 458.699219 452.101562 458.109375 453.242188 457.402344 454.332031 C 457.382812 454.367188 457.363281 454.398438 457.339844 454.429688 C 457.171875 454.6875 456.996094 454.945312 456.8125 455.195312 C 456.789062 455.226562 456.765625 455.257812 456.742188 455.292969 C 456.355469 455.820312 455.949219 456.339844 455.5 456.839844 C 448.085938 465.132812 435.351562 465.84375 427.058594 458.429688 C 426.761719 458.164062 426.476562 457.890625 426.199219 457.613281 C 426.109375 457.523438 426.023438 457.429688 425.933594 457.335938 C 425.753906 457.148438 425.574219 456.957031 425.402344 456.761719 C 425.300781 456.648438 425.203125 456.535156 425.109375 456.425781 C 424.949219 456.238281 424.796875 456.046875 424.644531 455.855469 C 424.554688 455.742188 424.464844 455.628906 424.375 455.511719 C 424.199219 455.277344 424.03125 455.039062 423.867188 454.800781 C 423.769531 454.65625 423.671875 454.511719 423.578125 454.363281 C 423.429688 454.136719 423.285156 453.914062 423.152344 453.683594 C 423.058594 453.53125 422.976562 453.375 422.890625 453.222656 C 422.796875 453.054688 422.703125 452.886719 422.617188 452.714844 C 422.527344 452.546875 422.441406 452.375 422.359375 452.207031 C 422.285156 452.046875 422.210938 451.890625 422.140625 451.734375 C 422.054688 451.550781 421.972656 451.371094 421.898438 451.1875 C 421.839844 451.046875 421.789062 450.910156 421.734375 450.769531 C 421.574219 450.367188 421.429688 449.964844 421.300781 449.554688 C 421.269531 449.457031 421.234375 449.359375 421.207031 449.261719 C 421.136719 449.035156 421.078125 448.808594 421.015625 448.582031 C 420.988281 448.464844 420.957031 448.351562 420.925781 448.234375 C 420.871094 448.003906 420.816406 447.769531 420.769531 447.535156 C 420.746094 447.433594 420.726562 447.328125 420.707031 447.222656 C 420.660156 446.976562 420.613281 446.726562 420.574219 446.472656 C 420.570312 446.445312 420.566406 446.414062 420.5625 446.382812 C 420.429688 445.496094 420.359375 444.601562 420.34375 443.703125 C 420.34375 443.636719 420.34375 443.570312 420.339844 443.5 C 420.339844 443.226562 420.34375 442.957031 420.355469 442.6875 C 420.359375 442.617188 420.359375 442.550781 420.363281 442.480469 C 420.390625 441.886719 420.433594 441.292969 420.515625 440.699219 C 420.546875 440.519531 420.570312 440.335938 420.597656 440.15625 C 421.492188 433.496094 419.171875 426.523438 413.785156 421.707031 C 408.414062 416.902344 401.25 415.375 394.746094 416.984375 C 394.738281 416.988281 394.730469 416.988281 394.722656 416.988281 C 394.535156 417.035156 394.347656 417.085938 394.160156 417.136719 C 394.144531 417.136719 394.128906 417.144531 394.117188 417.148438 C 387.867188 418.699219 380.980469 417.230469 375.820312 412.617188 C 367.527344 405.203125 366.8125 392.464844 374.226562 384.175781 C 381.644531 375.878906 394.378906 375.167969 402.671875 382.585938 "/>
<path fill-rule="nonzero" fill="rgb(0.392157%, 15.686275%, 31.764706%)" fill-opacity="1" d="M 348.300781 603.632812 C 349.714844 596.855469 354.382812 591.59375 360.332031 589.128906 C 360.351562 589.125 360.367188 589.121094 360.382812 589.113281 C 360.574219 589.042969 360.761719 588.964844 360.949219 588.886719 C 360.957031 588.882812 360.96875 588.878906 360.976562 588.875 C 367.15625 586.308594 371.996094 580.832031 373.46875 573.785156 C 374.945312 566.726562 372.683594 559.753906 368.027344 554.925781 C 368.007812 554.90625 367.992188 554.886719 367.972656 554.871094 C 367.863281 554.753906 367.75 554.636719 367.632812 554.527344 C 367.628906 554.515625 367.621094 554.511719 367.613281 554.507812 C 367.546875 554.433594 367.480469 554.359375 367.414062 554.289062 C 367.339844 554.207031 367.265625 554.125 367.191406 554.042969 C 366.992188 553.824219 366.796875 553.605469 366.609375 553.378906 C 366.542969 553.300781 366.480469 553.21875 366.414062 553.140625 C 366.226562 552.90625 366.039062 552.667969 365.863281 552.425781 C 365.804688 552.347656 365.75 552.269531 365.691406 552.1875 C 365.515625 551.941406 365.339844 551.6875 365.175781 551.433594 C 365.125 551.355469 365.074219 551.273438 365.023438 551.195312 C 364.863281 550.933594 364.703125 550.671875 364.550781 550.40625 C 364.503906 550.320312 364.460938 550.238281 364.414062 550.15625 C 364.265625 549.886719 364.125 549.617188 363.988281 549.34375 C 363.945312 549.253906 363.902344 549.160156 363.859375 549.070312 C 363.730469 548.800781 363.609375 548.527344 363.492188 548.253906 C 363.480469 548.21875 363.464844 548.1875 363.449219 548.15625 C 363.445312 548.140625 363.441406 548.125 363.433594 548.105469 C 363.363281 547.917969 363.285156 547.726562 363.207031 547.539062 C 363.203125 547.53125 363.199219 547.523438 363.195312 547.515625 C 360.628906 541.335938 355.152344 536.496094 348.105469 535.023438 C 341.046875 533.546875 334.074219 535.808594 329.246094 540.460938 C 329.226562 540.480469 329.207031 540.496094 329.191406 540.515625 C 329.074219 540.628906 328.957031 540.742188 328.847656 540.855469 C 328.835938 540.863281 328.832031 540.871094 328.828125 540.875 C 324.1875 545.371094 317.476562 547.554688 310.679688 546.136719 C 299.792969 543.863281 292.808594 533.1875 295.082031 522.296875 C 297.359375 511.410156 308.03125 504.425781 318.917969 506.699219 C 325.714844 508.121094 330.992188 512.808594 333.441406 518.78125 C 333.507812 518.953125 333.578125 519.125 333.644531 519.292969 C 336.203125 525.511719 341.695312 530.386719 348.765625 531.863281 C 355.824219 533.339844 362.789062 531.082031 367.621094 526.4375 C 367.625 526.429688 367.628906 526.425781 367.636719 526.417969 C 367.777344 526.289062 367.914062 526.148438 368.046875 526.011719 C 368.0625 526.003906 368.074219 525.988281 368.078125 525.976562 C 368.273438 525.792969 368.476562 525.617188 368.675781 525.4375 C 368.703125 525.414062 368.726562 525.390625 368.753906 525.367188 C 368.957031 525.1875 369.167969 525.011719 369.378906 524.839844 C 369.4375 524.792969 369.5 524.742188 369.558594 524.695312 C 369.769531 524.53125 369.984375 524.367188 370.199219 524.207031 C 370.25 524.171875 370.304688 524.136719 370.351562 524.097656 C 371.09375 523.570312 371.867188 523.089844 372.675781 522.664062 C 372.6875 522.65625 372.703125 522.648438 372.714844 522.640625 C 372.964844 522.511719 373.214844 522.386719 373.46875 522.265625 C 373.53125 522.238281 373.59375 522.207031 373.65625 522.179688 C 373.90625 522.0625 374.160156 521.953125 374.414062 521.847656 C 374.464844 521.828125 374.515625 521.808594 374.566406 521.789062 C 375.707031 521.328125 376.890625 520.972656 378.105469 520.726562 C 378.15625 520.71875 378.203125 520.707031 378.253906 520.699219 C 378.539062 520.644531 378.832031 520.59375 379.125 520.550781 C 379.160156 520.542969 379.199219 520.539062 379.238281 520.535156 C 380.492188 520.355469 381.773438 520.296875 383.070312 520.359375 C 383.109375 520.363281 383.148438 520.363281 383.1875 520.367188 C 383.496094 520.382812 383.804688 520.410156 384.113281 520.441406 C 384.152344 520.445312 384.191406 520.449219 384.230469 520.453125 C 384.882812 520.523438 385.535156 520.617188 386.191406 520.753906 C 397.082031 523.03125 404.066406 533.703125 401.792969 544.589844 C 401.710938 544.980469 401.617188 545.363281 401.511719 545.746094 C 401.480469 545.867188 401.441406 545.988281 401.40625 546.109375 C 401.332031 546.363281 401.257812 546.613281 401.171875 546.863281 C 401.125 547.003906 401.078125 547.144531 401.027344 547.285156 C 400.945312 547.511719 400.859375 547.742188 400.765625 547.96875 C 400.714844 548.105469 400.660156 548.242188 400.605469 548.375 C 400.492188 548.640625 400.371094 548.90625 400.246094 549.167969 C 400.167969 549.328125 400.089844 549.484375 400.011719 549.640625 C 399.886719 549.878906 399.765625 550.117188 399.632812 550.347656 C 399.546875 550.503906 399.457031 550.652344 399.367188 550.804688 C 399.265625 550.96875 399.167969 551.132812 399.0625 551.296875 C 398.960938 551.457031 398.855469 551.617188 398.75 551.773438 C 398.652344 551.917969 398.550781 552.058594 398.453125 552.199219 C 398.335938 552.363281 398.21875 552.523438 398.097656 552.683594 C 398.007812 552.800781 397.914062 552.917969 397.820312 553.035156 C 397.550781 553.371094 397.273438 553.699219 396.984375 554.015625 C 396.914062 554.089844 396.847656 554.167969 396.777344 554.242188 C 396.617188 554.414062 396.449219 554.582031 396.285156 554.75 C 396.199219 554.832031 396.113281 554.917969 396.027344 555 C 395.855469 555.164062 395.679688 555.328125 395.503906 555.488281 C 395.421875 555.554688 395.34375 555.625 395.261719 555.695312 C 395.070312 555.863281 394.878906 556.027344 394.679688 556.183594 C 394.65625 556.203125 394.628906 556.222656 394.605469 556.242188 C 393.90625 556.800781 393.164062 557.308594 392.394531 557.769531 C 392.335938 557.804688 392.277344 557.839844 392.21875 557.875 C 391.984375 558.007812 391.75 558.140625 391.511719 558.269531 C 391.449219 558.300781 391.386719 558.332031 391.324219 558.363281 C 390.796875 558.636719 390.261719 558.894531 389.707031 559.121094 C 389.539062 559.183594 389.363281 559.257812 389.195312 559.324219 C 382.980469 561.882812 378.101562 567.375 376.625 574.445312 C 375.152344 581.503906 377.410156 588.46875 382.054688 593.300781 C 382.0625 593.304688 382.0625 593.308594 382.070312 593.316406 C 382.203125 593.457031 382.339844 593.59375 382.476562 593.726562 C 382.488281 593.742188 382.5 593.753906 382.511719 593.757812 C 386.976562 598.398438 389.152344 605.09375 387.734375 611.871094 C 385.460938 622.761719 374.789062 629.746094 363.898438 627.472656 C 353.007812 625.195312 346.023438 614.523438 348.300781 603.632812 "/>
<path fill-rule="nonzero" fill="rgb(0.392157%, 15.686275%, 31.764706%)" fill-opacity="1" d="M 566.917969 540.195312 C 560.339844 542.359375 553.449219 540.949219 548.339844 537.023438 C 548.328125 537.011719 548.316406 537 548.300781 536.988281 C 548.144531 536.863281 547.984375 536.734375 547.824219 536.613281 C 547.816406 536.605469 547.808594 536.601562 547.800781 536.597656 C 542.488281 532.53125 535.324219 531.074219 528.484375 533.320312 C 521.632812 535.574219 516.726562 541.019531 514.871094 547.464844 C 514.863281 547.488281 514.855469 547.511719 514.851562 547.539062 C 514.804688 547.691406 514.761719 547.847656 514.722656 548.003906 C 514.71875 548.015625 514.71875 548.023438 514.71875 548.03125 C 514.691406 548.128906 514.65625 548.21875 514.628906 548.316406 C 514.59375 548.421875 514.558594 548.527344 514.527344 548.632812 C 514.4375 548.910156 514.34375 549.191406 514.242188 549.46875 C 514.207031 549.5625 514.167969 549.65625 514.132812 549.753906 C 514.023438 550.035156 513.910156 550.3125 513.789062 550.589844 C 513.753906 550.679688 513.710938 550.765625 513.671875 550.855469 C 513.542969 551.132812 513.414062 551.410156 513.273438 551.679688 C 513.230469 551.765625 513.1875 551.847656 513.144531 551.929688 C 513 552.203125 512.851562 552.472656 512.695312 552.738281 C 512.648438 552.820312 512.597656 552.898438 512.546875 552.980469 C 512.390625 553.242188 512.226562 553.5 512.058594 553.753906 C 512 553.835938 511.941406 553.917969 511.886719 554 C 511.714844 554.246094 511.542969 554.488281 511.359375 554.726562 C 511.339844 554.757812 511.320312 554.785156 511.300781 554.8125 C 511.285156 554.824219 511.273438 554.839844 511.265625 554.855469 C 511.136719 555.011719 511.007812 555.167969 510.886719 555.332031 C 510.882812 555.339844 510.875 555.347656 510.871094 555.351562 C 506.804688 560.667969 505.347656 567.832031 507.597656 574.667969 C 509.847656 581.519531 515.292969 586.429688 521.738281 588.28125 C 521.765625 588.289062 521.789062 588.300781 521.8125 588.300781 C 521.96875 588.351562 522.121094 588.390625 522.277344 588.429688 C 522.289062 588.433594 522.296875 588.4375 522.304688 588.4375 C 528.515625 590.207031 533.765625 594.925781 535.933594 601.523438 C 539.410156 612.089844 533.65625 623.476562 523.085938 626.949219 C 512.519531 630.425781 501.136719 624.671875 497.664062 614.105469 C 495.492188 607.511719 496.917969 600.59375 500.863281 595.488281 C 500.980469 595.347656 501.09375 595.199219 501.207031 595.058594 C 505.3125 589.734375 506.789062 582.539062 504.53125 575.675781 C 502.28125 568.828125 496.839844 563.921875 490.402344 562.0625 C 490.394531 562.0625 490.390625 562.058594 490.382812 562.058594 C 490.195312 562 490.007812 561.949219 489.820312 561.902344 C 489.808594 561.894531 489.789062 561.894531 489.777344 561.894531 C 489.519531 561.816406 489.265625 561.730469 489.007812 561.644531 C 488.976562 561.636719 488.945312 561.625 488.914062 561.613281 C 488.652344 561.527344 488.398438 561.433594 488.144531 561.335938 C 488.070312 561.308594 487.996094 561.28125 487.925781 561.253906 C 487.675781 561.152344 487.429688 561.050781 487.183594 560.941406 C 487.128906 560.914062 487.070312 560.890625 487.011719 560.863281 C 486.183594 560.484375 485.382812 560.054688 484.609375 559.570312 C 484.597656 559.5625 484.582031 559.554688 484.570312 559.546875 C 484.332031 559.394531 484.101562 559.238281 483.867188 559.078125 C 483.8125 559.039062 483.757812 559.003906 483.699219 558.960938 C 483.472656 558.804688 483.253906 558.640625 483.03125 558.472656 C 482.988281 558.4375 482.949219 558.402344 482.90625 558.371094 C 481.9375 557.613281 481.039062 556.765625 480.21875 555.832031 C 480.183594 555.796875 480.152344 555.761719 480.117188 555.722656 C 479.925781 555.5 479.738281 555.273438 479.554688 555.042969 C 479.53125 555.011719 479.507812 554.984375 479.484375 554.953125 C 478.703125 553.957031 478.011719 552.875 477.417969 551.71875 C 477.398438 551.683594 477.382812 551.648438 477.363281 551.613281 C 477.226562 551.339844 477.09375 551.0625 476.964844 550.777344 C 476.949219 550.742188 476.933594 550.703125 476.917969 550.667969 C 476.652344 550.066406 476.40625 549.453125 476.199219 548.820312 C 472.722656 538.25 478.472656 526.863281 489.039062 523.390625 C 489.417969 523.265625 489.800781 523.15625 490.179688 523.054688 C 490.300781 523.023438 490.425781 522.996094 490.550781 522.964844 C 490.804688 522.902344 491.058594 522.84375 491.316406 522.789062 C 491.460938 522.761719 491.609375 522.730469 491.753906 522.707031 C 491.996094 522.660156 492.234375 522.625 492.476562 522.589844 C 492.621094 522.566406 492.765625 522.546875 492.910156 522.527344 C 493.199219 522.492188 493.488281 522.464844 493.777344 522.441406 C 493.953125 522.429688 494.128906 522.417969 494.304688 522.410156 C 494.570312 522.394531 494.839844 522.382812 495.105469 522.382812 C 495.28125 522.378906 495.460938 522.382812 495.636719 522.386719 C 495.828125 522.386719 496.019531 522.390625 496.210938 522.398438 C 496.402344 522.410156 496.59375 522.421875 496.78125 522.433594 C 496.953125 522.445312 497.128906 522.460938 497.300781 522.480469 C 497.5 522.5 497.699219 522.519531 497.894531 522.542969 C 498.042969 522.5625 498.191406 522.585938 498.339844 522.609375 C 498.765625 522.675781 499.1875 522.75 499.605469 522.84375 C 499.707031 522.863281 499.808594 522.882812 499.90625 522.90625 C 500.136719 522.960938 500.363281 523.023438 500.589844 523.082031 C 500.707031 523.113281 500.820312 523.144531 500.9375 523.179688 C 501.164062 523.246094 501.394531 523.316406 501.621094 523.390625 C 501.722656 523.425781 501.820312 523.457031 501.921875 523.492188 C 502.160156 523.574219 502.402344 523.660156 502.636719 523.753906 C 502.664062 523.765625 502.695312 523.777344 502.722656 523.789062 C 503.558594 524.117188 504.367188 524.503906 505.148438 524.941406 C 505.210938 524.972656 505.269531 525.007812 505.328125 525.039062 C 505.566406 525.175781 505.796875 525.3125 506.027344 525.457031 C 506.085938 525.492188 506.144531 525.53125 506.203125 525.570312 C 506.703125 525.890625 507.195312 526.226562 507.667969 526.589844 C 507.808594 526.707031 507.953125 526.820312 508.097656 526.933594 C 513.421875 531.035156 520.613281 532.515625 527.480469 530.257812 C 534.328125 528.007812 539.230469 522.566406 541.09375 516.128906 C 541.09375 516.121094 541.097656 516.117188 541.097656 516.109375 C 541.15625 515.921875 541.203125 515.734375 541.25 515.546875 C 541.257812 515.535156 541.261719 515.515625 541.261719 515.503906 C 543.046875 509.316406 547.757812 504.085938 554.335938 501.925781 C 564.90625 498.449219 576.289062 504.199219 579.765625 514.765625 C 583.238281 525.335938 577.488281 536.722656 566.917969 540.195312 "/>
<path fill-rule="nonzero" fill="rgb(0.392157%, 15.686275%, 31.764706%)" fill-opacity="1" d="M 792.066406 626.316406 L 627.539062 626.316406 L 627.539062 370.390625 L 671.414062 370.390625 L 671.414062 583.175781 L 792.066406 583.175781 Z M 792.066406 626.316406 "/>
<path fill-rule="nonzero" fill="rgb(0.392157%, 15.686275%, 31.764706%)" fill-opacity="1" d="M 985.839844 626.316406 L 941.964844 626.316406 L 941.964844 612.058594 C 939.039062 617.910156 933.496094 622.292969 925.328125 625.222656 C 917.160156 628.144531 907.902344 629.609375 897.542969 629.609375 C 887.179688 629.609375 877.191406 628.203125 867.5625 625.402344 C 857.929688 622.605469 850.074219 618.519531 843.980469 613.15625 C 828.867188 599.507812 821.3125 579.277344 821.3125 552.464844 L 821.3125 443.511719 L 865.1875 443.511719 L 865.1875 552.464844 C 865.1875 564.894531 868.902344 573.851562 876.339844 579.335938 C 883.769531 584.820312 893.09375 587.5625 904.304688 587.5625 C 909.910156 587.5625 915.640625 586.347656 921.492188 583.90625 C 927.339844 581.472656 932.214844 577.6875 936.113281 572.574219 C 940.011719 567.453125 941.964844 560.753906 941.964844 552.464844 L 941.964844 443.511719 L 985.839844 443.511719 Z M 985.839844 626.316406 "/>
<path fill-rule="nonzero" fill="rgb(0.392157%, 15.686275%, 31.764706%)" fill-opacity="1" d="M 1302.457031 626.316406 L 1258.578125 626.316406 L 1258.578125 521.023438 C 1258.578125 508.105469 1255.472656 499.027344 1249.257812 493.785156 C 1243.042969 488.546875 1234.6875 485.925781 1224.214844 485.925781 C 1213.484375 485.925781 1204.160156 488.546875 1196.242188 493.785156 C 1188.320312 499.027344 1184.359375 508.105469 1184.359375 521.023438 L 1184.359375 626.316406 L 1141.953125 626.316406 L 1141.953125 521.023438 C 1141.953125 508.105469 1138.480469 499.085938 1131.53125 493.96875 C 1124.585938 488.847656 1116.359375 486.289062 1106.851562 486.289062 C 1100.027344 486.289062 1093.507812 487.386719 1087.292969 489.582031 C 1081.078125 491.773438 1076.019531 495.371094 1072.121094 500.367188 C 1068.21875 505.363281 1066.269531 512.246094 1066.269531 521.023438 L 1066.269531 626.316406 L 1022.398438 626.316406 L 1022.398438 443.511719 L 1066.269531 443.511719 L 1066.269531 457.40625 C 1072.121094 451.554688 1078.882812 447.480469 1086.558594 445.160156 C 1094.238281 442.84375 1101.855469 441.683594 1109.414062 441.683594 C 1120.621094 441.683594 1131.285156 443.695312 1141.402344 447.71875 C 1151.515625 451.738281 1159.621094 457.769531 1165.714844 465.816406 C 1172.050781 457.769531 1181.070312 451.738281 1192.773438 447.71875 C 1204.472656 443.695312 1215.804688 441.683594 1226.773438 441.683594 C 1240.417969 441.683594 1252.972656 445.039062 1264.429688 451.738281 C 1275.882812 458.445312 1285.085938 467.707031 1292.035156 479.523438 C 1298.980469 491.351562 1302.457031 505.183594 1302.457031 521.023438 Z M 1302.457031 626.316406 "/>
<path fill-rule="nonzero" fill="rgb(0.392157%, 15.686275%, 31.764706%)" fill-opacity="1" d="M 1424.195312 482.265625 C 1409.324219 482.265625 1398.054688 486.289062 1390.375 494.332031 C 1382.699219 502.375 1378.859375 511.277344 1378.859375 521.023438 L 1469.167969 521.023438 C 1469.167969 511.03125 1465.324219 502.074219 1457.648438 494.152344 C 1449.96875 486.230469 1438.820312 482.265625 1424.195312 482.265625 M 1506.824219 551.730469 L 1378.859375 551.730469 C 1379.828125 562.703125 1383.976562 571.109375 1391.289062 576.960938 C 1398.601562 582.808594 1407.617188 586.164062 1418.347656 587.015625 C 1429.066406 587.871094 1440.097656 586.40625 1451.433594 582.625 C 1462.765625 578.851562 1472.941406 573.0625 1481.960938 565.261719 L 1506.089844 598.53125 C 1492.683594 609.746094 1479.09375 617.722656 1465.324219 622.480469 C 1451.550781 627.230469 1437.960938 629.609375 1424.5625 629.609375 C 1393.601562 629.609375 1370.386719 620.957031 1354.910156 603.652344 C 1339.429688 586.347656 1331.695312 561.847656 1331.695312 530.160156 C 1331.695312 512.125 1335.289062 496.40625 1342.480469 482.996094 C 1349.667969 469.597656 1359.90625 459.234375 1373.191406 451.921875 C 1386.472656 444.609375 1402.132812 441.078125 1420.175781 441.320312 C 1459.660156 441.808594 1485.980469 457.285156 1499.144531 487.753906 C 1502.800781 496.523438 1505.175781 506.15625 1506.273438 516.636719 C 1507.371094 527.117188 1507.554688 538.816406 1506.824219 551.730469 "/>
<path fill-rule="nonzero" fill="rgb(0.392157%, 15.686275%, 31.764706%)" fill-opacity="1" d="M 1705.347656 626.316406 L 1661.476562 626.316406 L 1661.476562 519.558594 C 1661.476562 509.570312 1659.582031 502.074219 1655.804688 497.074219 C 1652.023438 492.082031 1647.398438 488.726562 1641.914062 487.019531 C 1636.429688 485.316406 1631.128906 484.460938 1626.007812 484.460938 C 1621.128906 484.460938 1615.464844 485.316406 1609.007812 487.019531 C 1602.546875 488.726562 1596.882812 492.082031 1592.007812 497.074219 C 1587.128906 502.074219 1584.695312 509.570312 1584.695312 519.558594 L 1584.695312 626.316406 L 1540.824219 626.316406 L 1540.824219 443.511719 L 1584.695312 443.511719 L 1584.695312 456.675781 C 1588.835938 451.070312 1595.300781 447.109375 1604.070312 444.792969 C 1612.847656 442.476562 1621.257812 441.320312 1629.300781 441.320312 C 1644.894531 441.320312 1658.363281 444.609375 1669.699219 451.191406 C 1681.035156 457.769531 1689.808594 466.910156 1696.023438 478.609375 C 1702.242188 490.308594 1705.347656 503.964844 1705.347656 519.558594 Z M 1705.347656 626.316406 "/>
</svg>
